<?xml version="1.0" encoding="UTF-8"?>
<svg xmlns="http://www.w3.org/2000/svg" xmlns:xlink="http://www.w3.org/1999/xlink" viewBox="0 0 837.98 1325.04">
  <defs>
    <style>
      .cls-1, .cls-2, .cls-3, .cls-4, .cls-5, .cls-6, .cls-7, .cls-8, .cls-9, .cls-10, .cls-11, .cls-12, .cls-13, .cls-14, .cls-15, .cls-16, .cls-17, .cls-18, .cls-19, .cls-20, .cls-21, .cls-22, .cls-23, .cls-24, .cls-25, .cls-26, .cls-27, .cls-28, .cls-29, .cls-30, .cls-31, .cls-32, .cls-33, .cls-34, .cls-35, .cls-36, .cls-37, .cls-38, .cls-39, .cls-40, .cls-41, .cls-42, .cls-43, .cls-44, .cls-45, .cls-46, .cls-47, .cls-48, .cls-49, .cls-50 {
        stroke-width: 0px;
      }

      .cls-1, .cls-3, .cls-13, .cls-20, .cls-30, .cls-37 {
        fill-rule: evenodd;
      }

      .cls-1, .cls-4, .cls-22, .cls-38 {
        fill: #fff;
      }

      .cls-2 {
        fill: url(#_Áåçûìÿííûé_ãðàäèåíò_89-2);
      }

      .cls-3 {
        fill: url(#radial-gradient-2);
      }

      .cls-3, .cls-13, .cls-18, .cls-20, .cls-37 {
        mix-blend-mode: screen;
      }

      .cls-4, .cls-22 {
        mix-blend-mode: soft-light;
      }

      .cls-5 {
        fill: url(#_Áåçûìÿííûé_ãðàäèåíò_88);
      }

      .cls-6 {
        fill: #3bc7c2;
      }

      .cls-7 {
        fill: url(#_Áåçûìÿííûé_ãðàäèåíò_57-2);
      }

      .cls-8 {
        fill: url(#_Áåçûìÿííûé_ãðàäèåíò_57-4);
      }

      .cls-9 {
        fill: #e767a7;
      }

      .cls-9, .cls-10, .cls-11, .cls-23, .cls-27, .cls-29, .cls-31, .cls-34, .cls-40, .cls-43, .cls-44, .cls-50 {
        mix-blend-mode: multiply;
      }

      .cls-9, .cls-22, .cls-27, .cls-31, .cls-34, .cls-40, .cls-50 {
        opacity: .5;
      }

      .cls-51 {
        isolation: isolate;
      }

      .cls-10 {
        fill: #c42781;
      }

      .cls-10, .cls-43, .cls-44 {
        opacity: .2;
      }

      .cls-11 {
        fill: #c72781;
      }

      .cls-11, .cls-23 {
        opacity: .3;
      }

      .cls-12 {
        fill: url(#_Áåçûìÿííûé_ãðàäèåíò_80-2);
      }

      .cls-13 {
        fill: url(#radial-gradient-3);
      }

      .cls-14 {
        fill: url(#_Áåçûìÿííûé_ãðàäèåíò_134);
      }

      .cls-15 {
        fill: url(#_Áåçûìÿííûé_ãðàäèåíò_13-2);
      }

      .cls-16 {
        fill: url(#_Áåçûìÿííûé_ãðàäèåíò_57);
      }

      .cls-17 {
        fill: url(#_Áåçûìÿííûé_ãðàäèåíò_80-3);
      }

      .cls-18 {
        fill: url(#radial-gradient);
      }

      .cls-19 {
        fill: url(#_Áåçûìÿííûé_ãðàäèåíò_88-2);
      }

      .cls-20 {
        fill: url(#radial-gradient-4);
      }

      .cls-21 {
        fill: #3bffc2;
      }

      .cls-23, .cls-29, .cls-34, .cls-43 {
        fill: #ab2781;
      }

      .cls-24 {
        fill: url(#_Áåçûìÿííûé_ãðàäèåíò_20);
      }

      .cls-25 {
        fill: url(#_Áåçûìÿííûé_ãðàäèåíò_106-2);
      }

      .cls-26 {
        fill: url(#_Áåçûìÿííûé_ãðàäèåíò_106);
      }

      .cls-27 {
        fill: #d14894;
      }

      .cls-28 {
        fill: url(#_Áåçûìÿííûé_ãðàäèåíò_57-3);
      }

      .cls-29 {
        opacity: .8;
      }

      .cls-30 {
        fill: #4d0542;
      }

      .cls-31 {
        fill: url(#_Áåçûìÿííûé_ãðàäèåíò_107);
      }

      .cls-32 {
        fill: url(#_Áåçûìÿííûé_ãðàäèåíò_80);
      }

      .cls-33 {
        fill: url(#_Áåçûìÿííûé_ãðàäèåíò_89);
      }

      .cls-35 {
        fill: url(#_Áåçûìÿííûé_ãðàäèåíò_81-2);
      }

      .cls-36 {
        fill: #aaefff;
      }

      .cls-37 {
        fill: url(#radial-gradient-5);
      }

      .cls-39 {
        fill: url(#_Áåçûìÿííûé_ãðàäèåíò_88-3);
      }

      .cls-40 {
        fill: url(#_Áåçûìÿííûé_ãðàäèåíò_107-2);
      }

      .cls-41 {
        fill: url(#_Áåçûìÿííûé_ãðàäèåíò_20-2);
      }

      .cls-42 {
        fill: url(#_Áåçûìÿííûé_ãðàäèåíò_30);
      }

      .cls-44 {
        fill: #c22781;
      }

      .cls-45 {
        fill: url(#_Áåçûìÿííûé_ãðàäèåíò_81);
      }

      .cls-46 {
        fill: url(#_Áåçûìÿííûé_ãðàäèåíò_13-3);
      }

      .cls-47 {
        fill: url(#_Áåçûìÿííûé_ãðàäèåíò_13);
      }

      .cls-48 {
        fill: url(#_Áåçûìÿííûé_ãðàäèåíò_57-6);
      }

      .cls-49 {
        fill: url(#_Áåçûìÿííûé_ãðàäèåíò_57-5);
      }

      .cls-50 {
        fill: url(#_Áåçûìÿííûé_ãðàäèåíò_71);
      }
    </style>
    <linearGradient id="_Áåçûìÿííûé_ãðàäèåíò_106" data-name="Áåçûìÿííûé ãðàäèåíò 106" x1="3450.96" y1="704.59" x2="3450.96" y2="185.92" gradientTransform="translate(4145.97 221.05) rotate(-173.24) scale(1 -1)" gradientUnits="userSpaceOnUse">
      <stop offset="0" stop-color="#ffb5b5"/>
      <stop offset=".28" stop-color="#ffb6bd"/>
      <stop offset=".72" stop-color="#ffbbd3"/>
      <stop offset="1" stop-color="#ffbfe6"/>
    </linearGradient>
    <linearGradient id="_Áåçûìÿííûé_ãðàäèåíò_80" data-name="Áåçûìÿííûé ãðàäèåíò 80" x1="3893.83" y1="1325.04" x2="3893.83" y2="1214.58" gradientTransform="translate(4311.17) rotate(-180) scale(1 -1)" gradientUnits="userSpaceOnUse">
      <stop offset="0" stop-color="#e522d9"/>
      <stop offset="1" stop-color="#ff2443"/>
    </linearGradient>
    <linearGradient id="_Áåçûìÿííûé_ãðàäèåíò_80-2" data-name="Áåçûìÿííûé ãðàäèåíò 80" x1="3520.65" y1="1083.03" x2="3520.65" y2="856.21" xlink:href="#_Áåçûìÿííûé_ãðàäèåíò_80"/>
    <linearGradient id="_Áåçûìÿííûé_ãðàäèåíò_30" data-name="Áåçûìÿííûé ãðàäèåíò 30" x1="3676.95" y1="1080.51" x2="3676.95" y2="847.23" gradientTransform="translate(4311.17) rotate(-180) scale(1 -1)" gradientUnits="userSpaceOnUse">
      <stop offset="0" stop-color="#ffc3c4"/>
      <stop offset=".44" stop-color="#ffc4cc"/>
      <stop offset="1" stop-color="#ffc9de"/>
    </linearGradient>
    <linearGradient id="_Áåçûìÿííûé_ãðàäèåíò_106-2" data-name="Áåçûìÿííûé ãðàäèåíò 106" x1="3716.32" y1="822.51" x2="3716.32" y2="679.74" gradientTransform="translate(4311.17) rotate(-180) scale(1 -1)" xlink:href="#_Áåçûìÿííûé_ãðàäèåíò_106"/>
    <linearGradient id="_Áåçûìÿííûé_ãðàäèåíò_20" data-name="Áåçûìÿííûé ãðàäèåíò 20" x1="3910.84" y1="1005.69" x2="3910.84" y2="637.39" gradientTransform="translate(4311.17) rotate(-180) scale(1 -1)" gradientUnits="userSpaceOnUse">
      <stop offset="0" stop-color="#ffd7da"/>
      <stop offset=".45" stop-color="#ffdfde"/>
      <stop offset="1" stop-color="#fff0e8"/>
    </linearGradient>
    <linearGradient id="_Áåçûìÿííûé_ãðàäèåíò_13" data-name="Áåçûìÿííûé ãðàäèåíò 13" x1="3911.55" y1="767.91" x2="3911.55" y2="159.72" gradientTransform="translate(4346.34 118.68) rotate(-177) scale(1 -1)" gradientUnits="userSpaceOnUse">
      <stop offset="0" stop-color="#ffd7da"/>
      <stop offset=".32" stop-color="#ffdfe1"/>
      <stop offset=".83" stop-color="#fff5f6"/>
      <stop offset="1" stop-color="#fff"/>
    </linearGradient>
    <linearGradient id="_Áåçûìÿííûé_ãðàäèåíò_71" data-name="Áåçûìÿííûé ãðàäèåíò 71" x1="3853.98" y1="472.84" x2="3853.98" y2="290.48" gradientTransform="translate(4346.34 118.68) rotate(-177) scale(1 -1)" gradientUnits="userSpaceOnUse">
      <stop offset="0" stop-color="#fff"/>
      <stop offset="1" stop-color="#d91a81"/>
    </linearGradient>
    <radialGradient id="_Áåçûìÿííûé_ãðàäèåíò_134" data-name="Áåçûìÿííûé ãðàäèåíò 134" cx="3862.26" cy="705.49" fx="3862.26" fy="705.49" r="382.78" gradientTransform="translate(4346.34 118.68) rotate(-177) scale(1 -1)" gradientUnits="userSpaceOnUse">
      <stop offset="0" stop-color="#dc16b1"/>
      <stop offset=".4" stop-color="#9517a9"/>
      <stop offset="1" stop-color="#5a1a88"/>
    </radialGradient>
    <radialGradient id="radial-gradient" cx="3862.26" cy="705.49" fx="3862.26" fy="705.49" r="382.78" gradientTransform="translate(4346.34 118.68) rotate(-177) scale(1 -1)" gradientUnits="userSpaceOnUse">
      <stop offset="0" stop-color="#000"/>
      <stop offset=".27" stop-color="#010002"/>
      <stop offset=".41" stop-color="#050009"/>
      <stop offset=".52" stop-color="#0b0017"/>
      <stop offset=".61" stop-color="#15002a"/>
      <stop offset=".69" stop-color="#210042"/>
      <stop offset=".77" stop-color="#300060"/>
      <stop offset=".84" stop-color="#420084"/>
      <stop offset=".9" stop-color="#5700ae"/>
      <stop offset=".96" stop-color="#6e00dc"/>
      <stop offset="1" stop-color="#8000ff"/>
    </radialGradient>
    <linearGradient id="_Áåçûìÿííûé_ãðàäèåíò_13-2" data-name="Áåçûìÿííûé ãðàäèåíò 13" x1="1053.28" y1="793.03" x2="1053.28" y2="605.2" gradientTransform="translate(-238.45 -677.92) rotate(15.4) scale(1 1.02) skewX(-2.8)" xlink:href="#_Áåçûìÿííûé_ãðàäèåíò_13"/>
    <linearGradient id="_Áåçûìÿííûé_ãðàäèåíò_107" data-name="Áåçûìÿííûé ãðàäèåíò 107" x1="1053.28" y1="793.03" x2="1053.28" y2="641.37" gradientTransform="translate(-238.45 -677.92) rotate(15.4) scale(1 1.02) skewX(-2.8)" gradientUnits="userSpaceOnUse">
      <stop offset="0" stop-color="#d91a81"/>
      <stop offset="1" stop-color="#fff"/>
    </linearGradient>
    <linearGradient id="_Áåçûìÿííûé_ãðàäèåíò_107-2" data-name="Áåçûìÿííûé ãðàäèåíò 107" x1="3728.95" y1="705.11" x2="4167.46" y2="705.11" gradientTransform="translate(4346.34 118.68) rotate(-177) scale(1 -1)" xlink:href="#_Áåçûìÿííûé_ãðàäèåíò_107"/>
    <linearGradient id="_Áåçûìÿííûé_ãðàäèåíò_13-3" data-name="Áåçûìÿííûé ãðàäèåíò 13" x1="4149.88" y1="749.59" x2="4149.88" y2="501.27" gradientTransform="translate(4311.17) rotate(-180) scale(1 -1)" xlink:href="#_Áåçûìÿííûé_ãðàäèåíò_13"/>
    <linearGradient id="_Áåçûìÿííûé_ãðàäèåíò_20-2" data-name="Áåçûìÿííûé ãðàäèåíò 20" x1="3898.57" y1="1304.59" x2="3898.57" y2="924.37" xlink:href="#_Áåçûìÿííûé_ãðàäèåíò_20"/>
    <linearGradient id="_Áåçûìÿííûé_ãðàäèåíò_57" data-name="Áåçûìÿííûé ãðàäèåíò 57" x1="4025.25" y1="795.9" x2="4025.25" y2="609.3" gradientTransform="translate(4311.17) rotate(-180) scale(1 -1)" gradientUnits="userSpaceOnUse">
      <stop offset="0" stop-color="#931a84"/>
      <stop offset="1" stop-color="#ae04b1"/>
    </linearGradient>
    <linearGradient id="_Áåçûìÿííûé_ãðàäèåíò_57-2" data-name="Áåçûìÿííûé ãðàäèåíò 57" x1="3839.33" y1="813.64" x2="3839.33" y2="677.25" xlink:href="#_Áåçûìÿííûé_ãðàäèåíò_57"/>
    <linearGradient id="_Áåçûìÿííûé_ãðàäèåíò_81" data-name="Áåçûìÿííûé ãðàäèåíò 81" x1="4226.7" y1="687.66" x2="4226.7" y2="501.27" gradientTransform="translate(4311.17) rotate(-180) scale(1 -1)" gradientUnits="userSpaceOnUse">
      <stop offset="0" stop-color="#ff2443"/>
      <stop offset=".99" stop-color="#e522d9"/>
    </linearGradient>
    <linearGradient id="_Áåçûìÿííûé_ãðàäèåíò_81-2" data-name="Áåçûìÿííûé ãðàäèåíò 81" x1="3617.95" y1="822.6" x2="3617.95" y2="702.17" xlink:href="#_Áåçûìÿííûé_ãðàäèåíò_81"/>
    <linearGradient id="_Áåçûìÿííûé_ãðàäèåíò_57-3" data-name="Áåçûìÿííûé ãðàäèåíò 57" x1="3939.68" y1="1026.2" x2="3939.68" y2="888.79" xlink:href="#_Áåçûìÿííûé_ãðàäèåíò_57"/>
    <linearGradient id="_Áåçûìÿííûé_ãðàäèåíò_57-4" data-name="Áåçûìÿííûé ãðàäèåíò 57" x1="3806.81" y1="1022.64" x2="3806.81" y2="813.65" xlink:href="#_Áåçûìÿííûé_ãðàäèåíò_57"/>
    <linearGradient id="_Áåçûìÿííûé_ãðàäèåíò_88" data-name="Áåçûìÿííûé ãðàäèåíò 88" x1="3808.57" y1="1183.93" x2="4007.25" y2="1183.93" gradientTransform="translate(4311.17) rotate(-180) scale(1 -1)" gradientUnits="userSpaceOnUse">
      <stop offset="0" stop-color="#ff2483"/>
      <stop offset=".99" stop-color="#e522d9"/>
    </linearGradient>
    <linearGradient id="_Áåçûìÿííûé_ãðàäèåíò_88-2" data-name="Áåçûìÿííûé ãðàäèåíò 88" x1="3584.75" y1="983.8" x2="3619.12" y2="983.8" xlink:href="#_Áåçûìÿííûé_ãðàäèåíò_88"/>
    <linearGradient id="_Áåçûìÿííûé_ãðàäèåíò_80-3" data-name="Áåçûìÿííûé ãðàäèåíò 80" x1="3928.31" y1="806.89" x2="3928.31" y2="712.29" xlink:href="#_Áåçûìÿííûé_ãðàäèåíò_80"/>
    <linearGradient id="_Áåçûìÿííûé_ãðàäèåíò_88-3" data-name="Áåçûìÿííûé ãðàäèåíò 88" x1="3948.47" y1="1058.15" x2="3988.77" y2="1058.15" xlink:href="#_Áåçûìÿííûé_ãðàäèåíò_88"/>
    <linearGradient id="_Áåçûìÿííûé_ãðàäèåíò_57-5" data-name="Áåçûìÿííûé ãðàäèåíò 57" x1="3890.96" y1="967.69" x2="3890.96" y2="849.12" gradientTransform="translate(4216.07 -218.76) rotate(174.3) scale(1 -1)" xlink:href="#_Áåçûìÿííûé_ãðàäèåíò_57"/>
    <linearGradient id="_Áåçûìÿííûé_ãðàäèåíò_89" data-name="Áåçûìÿííûé ãðàäèåíò 89" x1="3886.55" y1="957.16" x2="3886.55" y2="853.93" gradientTransform="translate(4216.07 -218.76) rotate(174.3) scale(1 -1)" gradientUnits="userSpaceOnUse">
      <stop offset="0" stop-color="#e522d9"/>
      <stop offset="1" stop-color="#ff2483"/>
    </linearGradient>
    <linearGradient id="_Áåçûìÿííûé_ãðàäèåíò_57-6" data-name="Áåçûìÿííûé ãðàäèåíò 57" x1="2799.66" y1="2286.39" x2="2799.66" y2="2193.13" gradientTransform="translate(3900.07 2328.54) rotate(-117.48) scale(1 -1)" xlink:href="#_Áåçûìÿííûé_ãðàäèåíò_57"/>
    <linearGradient id="_Áåçûìÿííûé_ãðàäèåíò_89-2" data-name="Áåçûìÿííûé ãðàäèåíò 89" x1="2800.59" y1="2278.24" x2="2800.59" y2="2193.15" gradientTransform="translate(3900.07 2328.54) rotate(-117.48) scale(1 -1)" xlink:href="#_Áåçûìÿííûé_ãðàäèåíò_89"/>
    <radialGradient id="radial-gradient-2" cx="1028.41" cy="1686.54" fx="1028.41" fy="1686.54" r="108.14" gradientTransform="translate(731.46 2145.36) rotate(-29.8) scale(.84 -.88) skewX(-7.19)" gradientUnits="userSpaceOnUse">
      <stop offset=".02" stop-color="#f200a5"/>
      <stop offset=".17" stop-color="#bf0082"/>
      <stop offset=".4" stop-color="#7c0054"/>
      <stop offset=".6" stop-color="#460030"/>
      <stop offset=".77" stop-color="#200016"/>
      <stop offset=".91" stop-color="#080005"/>
      <stop offset="1" stop-color="#000"/>
    </radialGradient>
    <radialGradient id="radial-gradient-3" cx="1028.41" cy="1686.54" fx="1028.41" fy="1686.54" r="83.79" gradientTransform="translate(731.46 2145.36) rotate(-29.8) scale(.84 -.88) skewX(-7.19)" gradientUnits="userSpaceOnUse">
      <stop offset=".02" stop-color="#ce00f2"/>
      <stop offset=".17" stop-color="#a300bf"/>
      <stop offset=".4" stop-color="#69007c"/>
      <stop offset=".6" stop-color="#3c0046"/>
      <stop offset=".77" stop-color="#1b0020"/>
      <stop offset=".91" stop-color="#070008"/>
      <stop offset="1" stop-color="#000"/>
    </radialGradient>
    <radialGradient id="radial-gradient-4" cx="1593.14" cy="2070.48" fx="1593.14" fy="2070.48" r="122.16" gradientTransform="translate(1654.51 2672.03) rotate(-56.04) scale(.84 -1.1) skewX(-7.84)" xlink:href="#radial-gradient-2"/>
    <radialGradient id="radial-gradient-5" cx="1593.14" cy="2070.48" fx="1593.14" fy="2070.48" r="94.65" gradientTransform="translate(1654.51 2672.03) rotate(-56.04) scale(.84 -1.1) skewX(-7.84)" xlink:href="#radial-gradient-3"/>
  </defs>
  <g class="cls-51">
    <g id="Capa_2" data-name="Capa 2">
      <g id="objects">
        <g>
          <g>
            <path class="cls-36" d="M351.19,419.69l370.87-205.11,3.72-179.1s52.73,101.35,9.86,218.49c0,0,21.45,23.71,16.79,98.73-4.66,75.02-45.96,234.67-115.07,280.06-58.48,38.41-150.51,48.13-149.77,52.37.74,4.25,23.9,12.03,72.32,17.64,38.83,4.5,64.72-13.4,94.03-12.18,20.97.87,87.36,6.47,90.99,19.31,3.64,12.84-7.58,29.52-7.58,29.52,0,0,44.16,15.02,39.43,42.77-6.71,39.36-82.39,39.01-152.16,37.8-69.77-1.2-94.03-6.34-94.03-6.34,0,0,14.9,12.72,26.29,37.49,0,0,12.93,3.24,16.32,3.54,3.39.3,51.82-5.85,82.56,3.45,30.74,9.3,26.12,18.61,32.76,19.5,6.64.9,21.35-.22,28.51-3.24,11.53-4.85,42.16-27.16,73.48-25.49,30.01,1.61,47.47,16.39,47.47,16.39,0,0-88.08,162.45-143.74,173.44-55.66,10.98-253.28-124-253.28-124l-89.78-495.04,323.75-172.13-323.75,172.13Z"/>
            <g>
              <path class="cls-26" d="M580.96,506.35c25.56-13.28,84.34-60.93,122.87-165.67,12.73-34.54,23.24-75.33,29.62-123.13,25.73-192.65-41.48-248.53-39.88-202.17,0,0,.04.2.05.65,5.03,153.42-25.89,384.92-56.95,413.61-31.13,28.74-31.28,24.02-31.28,24.02-25.79,15.19-38.88,62.52-24.43,52.69Z"/>
              <path class="cls-23" d="M580.96,506.35c25.56-13.28,84.34-60.93,122.87-165.67-16.82,24.44-26.64,17.48-12.57-106.14,13.31-117.78,3.37-210.13,2.36-218.51,5.03,153.42-25.89,384.92-56.95,413.61-31.13,28.74-31.28,24.02-31.28,24.02-25.79,15.19-38.88,62.52-24.43,52.69Z"/>
              <path class="cls-32" d="M534.92,1300.65s-2.09,16.69-2.61,20.34c-.52,3.65-66.22,10.95-117.32-11.99-51.1-22.94-100.89-49.26-114.72-55.53-2.22-1.01,3.65-38.88,3.65-38.88l231,86.07Z"/>
              <path class="cls-12" d="M810.24,856.21s26.25,6.26,27.64,11.82c1.39,5.56-10.43,48.67-31.29,102.9-20.86,54.23-34.08,103.76-36.51,109.59-2.43,5.82-27.03-.27-27.03-.27l67.19-224.04Z"/>
              <path class="cls-42" d="M515.19,847.23c8.54,9.73,74.48,17.5,119.32,27.93,44.84,10.43,66.22,15.12,73.52,13.56,7.3-1.56,44.15-30.08,102.2-32.5,8.34-.35-25.03,79.95-35.98,125.32-10.95,45.37-20.34,91.25-27.64,97.51-7.3,6.26-79.26-7.82-144.44-33.89-65.18-26.07-145.3-44.32-145.3-44.32l58.31-153.59Z"/>
              <path class="cls-25" d="M421.01,731.97c5.83,33.35,44.53,69.19,92.41,81.3,28.18,7.1,67.15,6.83,104.74,6.66,26.31-.06,51.75,3.02,72.82,2.53,44.94-1.04,71.72-22.68,74.97-28.18,3.25-5.5,8.37-11.56-2.26-30.93-10.62-19.32-50.64-19.15-50.64-19.15,21.3-3.14,24.82-20.14,20.64-26.25-4.18-6.11-30.44-8.26-52.78-10.18-16.46-1.38-27.19-7.54-43.04-4.95-5.17.88-12.22,3.08-21.52,5.23-19.04,4.46-47.39,8.64-87.96.22-43.43-9.03-71.11-19.98-99.07-28.51,0,0-14.09,18.88-8.31,52.23Z"/>
              <path class="cls-24" d="M434.37,680.12c17.63,22.44,29.49,91.12,67.36,139.16,37.87,48.05,5.31,143.99-33.68,175.28-38.99,31.29-148.91-4.52-167.61-93.16-18.71-88.64-32.21-231.52,6.67-257.63,38.89-26.11,127.26,36.35,127.26,36.35Z"/>
              <path class="cls-47" d="M141.2,526.63c2.81,5.15,6.01,10.13,9.67,14.93l.06.07c.06,0,.06.07.12.07,26.91,35.78,74.63,62.39,118.02,82.37l.19.07c26.73,12.3,51.81,22.08,69.28,29.99,49.86,22.43,80.93,32.84,98.34,24.91,12.75-5.87,81.34-7.92,147.97-36.16.13-.06.26-.05.33-.11l.13-.06c.06,0,.07-.06.13-.06,11.08-4.68,22.08-10.13,32.79-16.43,75.23-44.21,137.18-257.24,120.58-337.88-19.77-96.19-209.21-219.11-366-217.66-156.79,1.52-243.28,97.78-265.51,151.31-.74,1.82-1.48,3.83-2.11,5.98-18.73,60.06.75,233.83,36.02,298.64Z"/>
              <path class="cls-50" d="M720.75,401.91s7.33-78.49-11.08-113.48c-18.41-34.98-99.23-23.02-148.37-28.03-49.14-5.01-145.49-67.57-232.55-59.99-87.06,7.58-97.66,108.25-101.41,131.56-3.75,23.31,493.42,69.93,493.42,69.93Z"/>
              <path class="cls-14" d="M244.46,525.06c3.84,7.45,9.28,14.91,16.08,22.2q.06.07.12.13l.06.07c60.08,64.84,225.86,119.32,344.75,67.84,54.06-23.39,86.05-81.86,102.46-141.59,14.33-51.96,16.79-104.92,11.71-136.35-10.88-67.58-61.56-57.41-98.13-50.87-45.76,8.11-94.82.86-178.02-35.18-83.13-36.1-152.49-31.66-184.84,3.19-38,41.1-56.09,189.23-14.19,270.55Z"/>
              <path class="cls-18" d="M244.46,525.06c3.84,7.45,9.28,14.91,16.08,22.2q.06.07.12.13l.06.07c60.08,64.84,225.86,119.32,344.75,67.84,54.06-23.39,86.05-81.86,102.46-141.59,14.33-51.96,16.79-104.92,11.71-136.35-10.88-67.58-61.56-57.41-98.13-50.87-45.76,8.11-94.82.86-178.02-35.18-83.13-36.1-152.49-31.66-184.84,3.19-38,41.1-56.09,189.23-14.19,270.55Z"/>
              <path class="cls-34" d="M244.46,525.06c3.84,7.45,9.28,14.91,16.08,22.2-2.83-3.42-40.18-50.58,23.18-103.3,65.65-54.71,435.67-42.1,424.21,29.76,14.33-51.96,16.79-104.92,11.71-136.35-10.88-67.58-61.56-57.41-98.13-50.87-45.76,8.11-94.82.86-178.02-35.18-83.13-36.1-152.49-31.66-184.84,3.19-38,41.1-56.09,189.23-14.19,270.55Z"/>
              <path class="cls-15" d="M548.19,381.17c-97.66-24.65-113.33-138.56-67.25-179.61,5.23-4.68,11.29-8.39,18.12-10.93,59.45-22.06,126.73,11.09,147.02,55.39,5.76,12.61,8.74,27.58,8.73,43.02.01,52.79-34.21,110.44-106.62,92.13Z"/>
              <path class="cls-6" d="M564.68,326.35c-52.55-13.21-63.89-81.26-37.32-104.8,2.98-2.65,6.44-4.65,10.33-5.87,32.99-10.28,67.52,12.81,76.69,38.53,2.52,7.09,3.65,15.3,3.35,23.6-.98,27.77-17.83,57.4-53.05,48.53Z"/>
              <path class="cls-21" d="M558.76,320.39c-44.89-11.28-54.22-68.8-31.78-88.85,2.52-2.26,5.45-3.98,8.74-5.06,28.04-9.09,57.75,10.01,65.8,31.86,2.22,6.05,3.24,13.07,3.02,20.2-.71,23.92-15.27,49.53-45.79,41.85Z"/>
              <path class="cls-31" d="M548.19,381.17c-97.66-24.65-113.33-138.56-67.25-179.61-24.82,31.81-15.24,114.99,49.63,152.85,64.82,37.78,117.66-1.48,124.16-64.92-.02-.14.04-.33.08-.45.01,52.79-34.21,110.44-106.62,92.13Z"/>
              <path class="cls-40" d="M151.06,541.7c43.52,57.88,141.52,91.68,187.49,112.43,49.86,22.43,80.93,32.84,98.34,24.91,12.75-5.87,81.34-7.92,147.97-36.16-6.34,2.36-62.88,27.65-208.98-5.86-150.73-34.65-220.55-92.21-224.81-95.32Z"/>
              <path class="cls-34" d="M141.2,526.63c2.81,5.15,6.01,10.13,9.67,14.93l.06.07c.06,0,.06.07.12.07,26.91,35.78,74.63,62.39,118.02,82.37l.19.07s-57.93-34.45-110.71-128.52c-76.31-136.02-53.37-267.64-53.37-267.64-18.73,60.06.75,233.83,36.02,298.64Z"/>
              <path class="cls-10" d="M223.36,130.72c40.25,15.8-9.67,209.84-22.97,300.18-13.31,90.34-98.72-24.48-102.43-135.95-3.71-111.47,107.55-171.24,125.41-164.23Z"/>
              <path class="cls-38" d="M678.63,370.59c18.1,4.38-4.96,32.72-18.73,32.74-13.77.02,3.53-36.42,18.73-32.74Z"/>
              <path class="cls-4" d="M646.27,455.16c42.03,13.18,5.29,88.78-54.08,98.73-59.37,9.95,5.89-113.85,54.08-98.73Z"/>
              <path class="cls-38" d="M307.68,159.07c18.8,10.73-3.99,45-32.21,39.41-28.22-5.59-4.02-60.08,32.21-39.41Z"/>
              <path class="cls-38" d="M201.12,465.41c18.88,5.04,13.81,30.02-1.79,34.06-15.6,4.04-10.19-37.26,1.79-34.06Z"/>
              <path class="cls-38" d="M412.85,642.77s-32.28-12.79-86.27-43.57c-53.99-30.78-75.52-37.37-77.33-37.47-1.82-.1-.94,34.92,52.26,54.55,53.2,19.63,111.35,26.49,111.35,26.49Z"/>
              <path class="cls-38" d="M590.33,640.99c17.16-8.36,23.73-21.98,22.32-23.96-1.42-1.98-43.91,14.93-83.29,18.63-39.38,3.71-41.96,6.61-41.75,8.44.21,1.83,57.11,19.1,102.72-3.11Z"/>
              <path class="cls-38" d="M511.91,324.6c19.33,8.45,2.29-40.73-16.74-48.41-19.04-7.68-1.81,40.3,16.74,48.41Z"/>
              <path class="cls-4" d="M313.18,317.68c6.8,2.61-2.4,14.85-10.65,17.66-8.25,2.81-7.62-24.68,10.65-17.66Z"/>
              <path class="cls-4" d="M446.63,266.55s-82.47-39.34-142.36-21.94c-59.89,17.4-65.52,94.5-65.52,94.5,0,0,24.18-78.64,77.05-87.53,52.87-8.89,130.83,14.96,130.83,14.96Z"/>
              <path class="cls-34" d="M354.81,697.35s3.09,59.33-10.74,109.76c-15.47,56.4-50.03,60.49-50.03,60.49,0,0-8.51-49.55-9.29-74.04-.78-24.49,70.06-96.2,70.06-96.2Z"/>
              <path class="cls-46" d="M43.71,625.41c13.92,17.56,44.86,40.67,80.25,62.25,33.08,20.2,70.01,38.97,100.45,50.42,20.37,7.71,37.81,12.11,49.26,11.45,46.84-2.64,55.21-84.65,45.08-101.77-8.15-13.76-113.6-36.6-139.36-56.53-4.57-3.52-8.37-6.71-11.56-9.69-20.59-18.88-16.29-26.47-31.26-38.03-17.34-13.37-42.88-40.89-50.31-42.16-7.43-1.27-14.37,12.83-5.94,33.25,0,0-49.7-28.4-71.44-17.67-1.82.88-3.3,2.09-4.51,3.52-13.71,15.91,6.6,63.79,39.35,104.96Z"/>
              <path class="cls-41" d="M432.19,983.09c22.21,31.29,32.1,71.96,45.77,128.27,13.67,56.32,41.82,112.11,49.91,139.22s8.61,45.37,7.05,50.06c-1.56,4.69-56.32,9.39-109.5-12.51-53.19-21.9-71.96-41.19-94.9-46.93-22.94-5.74-27.64-20.34-26.59-32.85,1.04-12.52-3.13-56.84-3.13-131.4s-12.18-138.23-11.13-149.59c1.05-11.36,110.21,10.19,142.54,55.73Z"/>
              <path class="cls-16" d="M259.29,748.38s32.5,6.45,44.63-48.43c12.13-54.88-19.16-67.62-26.47-69.87-7.32-2.26-24.42-9.13-24.42-9.13,0,0,17.68-23.37,61.5-3.91,43.82,19.47,57.46,103.08,14.7,156.79-42.76,53.71-110.65-3.06-112.56-38.73l42.63,13.28Z"/>
              <path class="cls-7" d="M434.37,680.12s30.67-14.77,60.91,22.61c30.24,37.37,2.19,110.91,2.19,110.91,0,0-12.14-17.03-30.37-56.76-18.23-39.73-32.73-76.76-32.73-76.76Z"/>
              <path class="cls-45" d="M43.71,625.41c13.92,17.56,44.86,40.67,80.25,62.25,52.01-5.39,45.41-91.15,43.87-106.12-20.59-18.88-16.29-26.47-31.26-38.03-17.34-13.37-42.88-40.89-50.31-42.16-7.43-1.27-14.37,12.83-5.94,33.25,0,0-49.7-28.4-71.44-17.67-21.8,10.73-.83,63.63,34.84,108.49Z"/>
              <path class="cls-35" d="M618.17,819.93c26.31-.06,45.02,3.42,72.82,2.53,51.16-1.63,71.72-22.68,74.97-28.18,3.25-5.5,8.37-11.56-2.26-30.93-10.62-19.32-50.64-19.15-50.64-19.15,21.3-3.14,24.82-20.14,20.64-26.25-4.18-6.11-30.44-8.26-52.78-10.18-16.46-1.38-27.19-7.54-43.04-4.95-5.17.88-12.22,3.08-21.52,5.23,7.43,17.28,28.18,73.65,1.82,111.9Z"/>
              <path class="cls-28" d="M445.36,1005.45s-19.2-33.63-78.52-57.12c-59.33-23.49-73.31-7.77-73.5,16.97,0,0-21.31-10.21-15.69-47.63,4.46-29.72,46.95-43.91,121.52-5.84,74.57,38.07,77.04,88.13,55.03,114.37l-8.84-20.75Z"/>
              <path class="cls-8" d="M456.9,1022.64c29.72-6.49,52.23-22.9,67.81-43.92,25.7-34.68,32.75-81.9,22.79-118.23-3.08-11.23-6.83-19.92-10.84-26.53,0,0-.06,0-.06-.05-18.04-19.13-39.13-20.26-39.13-20.26l6.71,8.97c27.36,45.9-23.39,149.11-39.13,180.15-2.92,5.67-8.15,19.87-8.15,19.87Z"/>
              <path class="cls-5" d="M303.92,1208.36s98.41-71.75,198.68-22.49l-5.08-13.15s-88.27-46.75-193.6,35.64Z"/>
              <path class="cls-19" d="M703.69,888.98s-10.84,101.23,22.74,190.66c0,0-44.12-68.16-32.38-191.68l9.65,1.02Z"/>
              <path class="cls-17" d="M372.39,802.95c-15.52-11.43-21.13-46.05-18.14-59.72,7.14-32.66,23.76-31.31,30.01-30.75l-.03,3.29.27-3.27-.27,3.27.27-3.27c12.35,1.01,21.76,12.15,25.8,30.54,4.91,22.3.74,51.74-14.56,60.4-4.41,2.5-8.35,3.45-11.81,3.45-4.85,0-8.74-1.87-11.54-3.94ZM360.66,744.62c-2.64,12.09,2.8,43.59,15.62,53.04,4.78,3.51,10.08,3.54,16.22.07,10.94-6.2,16.26-31.1,11.38-53.28-1.6-7.28-6.75-24.32-19.93-25.41l-.24-.02c-.81-.07-1.76-.15-2.8-.15-6.04,0-15.21,2.68-20.25,25.75Z"/>
              <path class="cls-29" d="M80.31,534.59s7.73,8.4,9.3,18.83c1.56,10.43,6.43,45.54,35.28,54.23,0,0-14.43,12.51-30.07-10.17-15.64-22.68-8.45-37.54-10.35-47.19-1.9-9.65-4.16-15.7-4.16-15.7Z"/>
              <path class="cls-39" d="M322.57,936.85s15.33,179.91,40.13,237.03l-12.85,5.57s-29.92-154.97-27.28-242.61Z"/>
              <path class="cls-29" d="M713.06,744.19s-13.51.34-16.83,1.26c-3.32.91-12.97,32.72-39.04,38.72,0,0,18.77,3.39,33.37-16.95,14.6-20.34,22.49-23.03,22.49-23.03Z"/>
              <path class="cls-9" d="M446.55,677.25s28.11,96.84-33.95,82.35c-49.25-11.5-62.76-100.88-62.76-100.88,0,0,61.39,20.64,72.96,21.02,11.57.39,23.75-2.49,23.75-2.49Z"/>
              <path class="cls-34" d="M352.93,673.88s6.36,57.95-30.37,88.51c-36.73,30.55-35.56-10.54-36.64-16.94-1.08-6.4,27.73-14.73,23.21-69.65-4.52-54.92-56.11-54.84-56.11-54.84,0,0,32.82,3.74,41.16,48.24,8.34,44.5-23.92,69.53-41.16,72.65-17.24,3.13-36.37-6.74-36.37-6.74,0,0,14.42,59.54,69.27,60.78,54.84,1.24,75.7-77.68,67.01-122Z"/>
              <path class="cls-34" d="M477.96,686.46c-23.12-10.53-13.19,33.1-1.97,71.72,11.22,38.62,26,41.25,26,41.25l-4.51,14.22s-44.58-74.26-63.1-133.52c0,0,18.57-9.56,43.59,6.33Z"/>
              <path class="cls-49" d="M454.16,1128.68c44-16.02,18.12-93.17-5.32-110.54-23.44-17.37-54.58,5.25-56.17,54.22-1.58,48.97,47.25,61.51,61.49,56.32Z"/>
              <path class="cls-33" d="M466.63,1105.89c12.72-21.25,2.69-77.13-25.08-87.1-27.77-9.98-37.25,26.53-35.71,50.57,2.45,38.42,41.72,68.39,60.79,36.53Z"/>
              <path class="cls-48" d="M672.55,879.64c20.55,13.28-27.5,35.22-64.05,28.74-35.43-6.29-42.92-34.25-41.88-44.97,1.04-10.72,73.24-4.89,105.93,16.23Z"/>
              <path class="cls-2" d="M675.84,882.24c3.54,10.26-35.78,26.52-64.32,19.42-28.54-7.09-40.55-31.74-37.96-39.05,2.58-7.31,36.73-4.39,59.77-.19,23.04,4.2,40.95,15.27,42.51,19.81Z"/>
              <path class="cls-34" d="M307.42,890.1c-22.46,11.77,14.22,31.12,41.51,44.67,27.29,13.56,83.95,42.41,99.25,53.53,15.3,11.12,3.51-30.99-5.55-45.91,0,0,44.3,40.74,12.93,82.09l-10.86-8.71s-35.11-51.89-87.25-58.27c-52.14-6.39-60.99,36.77-60.99,36.77l-3.12-28.97s-17.63-9.39-16.56-38.82c1.07-29.43,21.13-35.2,30.64-36.38Z"/>
              <path class="cls-34" d="M456.9,1022.64c29.72-6.49,52.23-22.9,67.81-43.92l8.64-14.86s-37.54,25.15-31.37-18.66c6.16-43.7,25.43-117.24,34.62-111.29-12.77-16.84-39.13-20.26-39.13-20.26l6.71,8.97c27.36,45.9-23.39,149.11-39.13,180.15-2.92,5.67-8.15,19.87-8.15,19.87Z"/>
              <path class="cls-11" d="M506.79,826.67s-.9,58.04-22.8,89.33c-21.9,31.29-54.56,14.73-54.56,14.73,0,0,40.25,38.92,35.62,72.04,0,0,71.55-88.05,41.74-176.1Z"/>
              <path class="cls-34" d="M547.46,858.15l7.74,1.6s40.2,75.9,49.06,127c8.86,51.1-52.43,40.43-52.43,40.43l-60.89-17.81s78.39-52.07,56.52-151.21Z"/>
              <path class="cls-44" d="M414.99,1308.99c-9.96-4.52-43.18-79.92-65.53-97.16-22.35-17.24-52.14,11.95-45.54,43.34,0,0,35.81,17.14,49.71,23.75,13.91,6.6,61.36,30.07,61.36,30.07Z"/>
              <path class="cls-44" d="M825.48,917.68s-59.93,26.31-82.43,70.11c-22.5,43.8,6.87,83.95,14.52,87.43,7.65,3.48,14.28,0,14.28,0,0,0,12.14-38.24,23.96-74.04,11.82-35.81,29.67-83.49,29.67-83.49Z"/>
              <path class="cls-4" d="M496.75,1183.93c11.62,4.84,28.57,79,21.81,94.99s-101.89-2.69-138.16-47.5c-36.27-44.8-21.41-47.5-21.41-47.5,0,0,56.67-33.81,137.77,0Z"/>
              <path class="cls-4" d="M800.33,858.15c8.42-1.46-11.99,58.2-40.15,95.22-28.16,37.02-44.32,43.85-44.32,43.85,0,0-19.5-79.83-8.86-96.51,10.63-16.69,31.81-31.92,93.34-42.55Z"/>
              <path class="cls-22" d="M438.88,941.08c12.72,12.08-35.65,24.73-69.14,0-33.49-24.73-26.54-39.85-26.54-39.85,0,0,48.14-5.3,95.68,39.85Z"/>
              <path class="cls-22" d="M532.83,861.34c11.15-3.98,15.62,30.76,3.77,61.01-11.85,30.24-31.82,29.2-34.61,28.16-2.79-1.04,5.29-80.04,30.84-89.17Z"/>
              <path class="cls-22" d="M349.74,702.6c-11.93,21.86-32.79-31.79-47.91-59.72-15.12-27.93,60.63-25.15,47.91,59.72Z"/>
              <path class="cls-38" d="M396.39,830.48c25.6,17.92-19.58,27.12-21.26,8.34-1.68-18.77,14.31-13.21,21.26-8.34Z"/>
              <path class="cls-38" d="M770.08,917.68c10.6,1.78-8.69,16.75-13.9,17.09-5.21.35-8.8-20.9,13.9-17.09Z"/>
              <path class="cls-38" d="M392.63,1212.53c22.32,12.06-5.63,21.9-12.58,3.82-6.95-18.08,7.44-6.61,12.58-3.82Z"/>
              <path class="cls-38" d="M358.98,1012.33c20.32,10.87,14.53,18.22,3.72,24.48-10.81,6.26-10.89-28.31-3.72-24.48Z"/>
              <path class="cls-27" d="M497.52,1172.71s-3.4-20.22-56.7-22.31c-53.3-2.09-105.52,36.73-105.52,36.73,0,0,73.72-38.6,162.22-14.43Z"/>
              <path class="cls-27" d="M694.04,887.96s-12.16-7.78-13.99,40.19c-1.82,47.97,28.46,110.58,28.46,110.58,0,0-14.16-58.5-14.36-99.96-.2-41.45-.11-50.81-.11-50.81Z"/>
              <path class="cls-34" d="M43.71,625.41c13.92,17.56,44.86,40.67,80.25,62.25,33.08,20.2,70.01,38.97,100.45,50.42l12.16,3.25s-83.5-29.17-148.89-92.36C22.35,585.78,5.18,532.28,4.35,520.45c-13.71,15.91,6.6,63.79,39.35,104.96Z"/>
              <path class="cls-23" d="M80.31,534.59s-25.29-17.03-38.16-2.72c-12.86,14.31-.4,64.7,38.16,86.91,19.71,11.35,39.71-9.48,39.71-9.48,0,0-29.02-11.53-29.55-32.58-.53-21.05-10.16-42.12-10.16-42.12Z"/>
              <path class="cls-23" d="M713.06,744.19s30.69-.18,44.51,16.51c13.82,16.69-19.12,43.8-53.75,43.28-34.63-.52-45.12-19.89-41.89-21.26,3.23-1.37,20.73-4.86,26.81-20.33,6.08-15.47,24.32-18.2,24.32-18.2Z"/>
              <path class="cls-43" d="M81.13,503.03c6.37-3.29,19.25,8.85,20.12,27.1.87,18.25-6.95,24.33-8.86,22.77-1.91-1.56-6.87-8.8-11.26-17.35-4.39-8.55-7.78-28.51,0-32.52Z"/>
              <path class="cls-43" d="M735.05,721.54c-7.43-7.23-3.3,9.68-38.03,21.21l-.79,2.69s9.06,0,24.19-4.04c15.12-4.04,14.64-19.86,14.64-19.86Z"/>
              <path class="cls-10" d="M265.61,736.81c13.36-10.77-39.94-55.94-69.67-63.82-29.72-7.89-61.56,14.2-61.56,14.2,0,0,75.32,65.83,131.23,49.63Z"/>
              <path class="cls-34" d="M490.94,1009.36s19.54,6.37,47.75-9.1c28.21-15.47,9.98-75.89,9.98-75.89,0,0-12.07,55.57-57.73,84.99Z"/>
              <path class="cls-43" d="M701.56,709.67s-4.65,5.9-26.64,5.94c-21.99.04-27.77-11.93-26.43-12.59,1.34-.66,11.07-.15,21.54,3.03,10.46,3.18,31.53,3.62,31.53,3.62Z"/>
              <path class="cls-38" d="M256.61,640.16c21.64,15.94-1.01,19.5-17.86,5.8-3.62-2.95,2.1-17.41,17.86-5.8Z"/>
              <path class="cls-34" d="M618.17,819.93s-38.94-.74-70.13-11.25c-31.19-10.51-41.09-31.51-41.09-31.51,0,0-4.86,26.14-7.94,31.65,0,0,26.36,14.88,119.16,11.11Z"/>
              <path class="cls-38" d="M318.78,241.52s1.27,5.97-12.29,12.42c-13.55,6.45-26.67,2.8-26.67,2.8,0,0,6.76-15.72,38.96-15.22Z"/>
            </g>
          </g>
          <g>
            <g>
              <g>
                <path class="cls-3" d="M669.42,473.05c-31.58-42.39-92.53-56.51-136.14-31.53-43.6,24.97-53.35,79.58-21.77,121.97,31.58,42.39,92.53,56.51,136.14,31.53,43.61-24.97,53.35-79.58,21.77-121.97Z"/>
                <path class="cls-13" d="M651.64,483.23c-24.47-32.85-71.7-43.78-105.48-24.43-33.79,19.35-41.34,61.66-16.87,94.51,24.47,32.85,71.7,43.78,105.48,24.43,33.79-19.35,41.34-61.66,16.87-94.51Z"/>
              </g>
              <g>
                <path class="cls-20" d="M434.7,399.51c-66.02-35.04-145.26-25.28-176.97,21.8-31.72,47.09-3.91,113.66,62.11,148.71,66.02,35.04,145.26,25.28,176.97-21.8,31.72-47.09,3.91-113.66-62.11-148.71Z"/>
                <path class="cls-37" d="M421.77,418.71c-51.16-27.15-112.55-19.59-137.12,16.89-24.58,36.48-3.03,88.07,48.13,115.22,51.16,27.15,112.55,19.59,137.12-16.89,24.58-36.48,3.03-88.07-48.13-115.22Z"/>
              </g>
              <path class="cls-1" d="M450.95,520.22c-2.02,7.77-26.24-7.39-62.19-14.46-35.95-7.08-67.71,10.78-78.94,1.75-11.23-9.03,2.75-74.2,53.07-71.82,63.84,3.03,91.42,71.62,88.07,84.53Z"/>
              <path class="cls-1" d="M631.54,566.99c-3.61,5.95-1.47-10.25-24.26-18.83-26.61-10.02-54.27,6.1-59.01-2.91-4.74-9.02,17.68-69.75,50.11-60.04,41.15,12.33,39.16,71.9,33.16,81.79Z"/>
            </g>
            <path class="cls-30" d="M523.37,579.87s-9.05,33.89-34.51,31.44c-25.46-2.45-29.67-45.86-29.67-45.86,0,0,35.33,25.34,64.18,14.42Z"/>
          </g>
        </g>
      </g>
    </g>
  </g>
</svg>