<?xml version="1.0" encoding="UTF-8"?>
<svg xmlns="http://www.w3.org/2000/svg" xmlns:xlink="http://www.w3.org/1999/xlink" viewBox="0 0 926.52 1369.19">
  <defs>
    <style>
      .cls-1, .cls-2, .cls-3, .cls-4, .cls-5, .cls-6, .cls-7, .cls-8, .cls-9, .cls-10, .cls-11, .cls-12, .cls-13, .cls-14, .cls-15, .cls-16, .cls-17, .cls-18, .cls-19, .cls-20, .cls-21, .cls-22, .cls-23, .cls-24, .cls-25, .cls-26, .cls-27, .cls-28, .cls-29, .cls-30, .cls-31, .cls-32, .cls-33, .cls-34, .cls-35, .cls-36, .cls-37, .cls-38, .cls-39, .cls-40, .cls-41, .cls-42, .cls-43, .cls-44, .cls-45, .cls-46, .cls-47, .cls-48, .cls-49, .cls-50, .cls-51, .cls-52, .cls-53, .cls-54, .cls-55, .cls-56, .cls-57, .cls-58, .cls-59, .cls-60 {
        stroke-width: 0px;
      }

      .cls-1, .cls-3, .cls-61, .cls-62, .cls-63, .cls-25, .cls-46 {
        fill: #fff;
      }

      .cls-1, .cls-15, .cls-21, .cls-23, .cls-34, .cls-45 {
        fill-rule: evenodd;
      }

      .cls-64 {
        letter-spacing: 0em;
      }

      .cls-2 {
        fill: url(#_Áåçûìÿííûé_ãðàäèåíò_89-2);
      }

      .cls-65 {
        filter: url(#outer-glow-4);
      }

      .cls-65, .cls-62, .cls-66, .cls-67 {
        stroke: #fff;
      }

      .cls-65, .cls-68, .cls-66 {
        stroke-miterlimit: 10;
      }

      .cls-65, .cls-18, .cls-66 {
        fill: none;
      }

      .cls-65, .cls-66 {
        stroke-width: .57px;
      }

      .cls-3, .cls-25 {
        mix-blend-mode: soft-light;
      }

      .cls-4 {
        fill: url(#_Áåçûìÿííûé_ãðàäèåíò_88);
      }

      .cls-5 {
        fill: #3bc7c2;
      }

      .cls-6 {
        fill: url(#linear-gradient);
      }

      .cls-69 {
        filter: url(#outer-glow-3);
      }

      .cls-70 {
        letter-spacing: .01em;
      }

      .cls-7 {
        fill: url(#_Áåçûìÿííûé_ãðàäèåíò_57-2);
      }

      .cls-8 {
        fill: url(#linear-gradient-6);
      }

      .cls-9 {
        fill: url(#_Áåçûìÿííûé_ãðàäèåíò_57-4);
      }

      .cls-10 {
        fill: #e767a7;
      }

      .cls-10, .cls-11, .cls-13, .cls-27, .cls-31, .cls-33, .cls-36, .cls-41, .cls-44, .cls-48, .cls-52, .cls-54, .cls-60 {
        mix-blend-mode: multiply;
      }

      .cls-10, .cls-25, .cls-31, .cls-36, .cls-41, .cls-48, .cls-60 {
        opacity: .5;
      }

      .cls-71 {
        isolation: isolate;
      }

      .cls-11 {
        fill: #c42781;
      }

      .cls-11, .cls-52, .cls-54 {
        opacity: .2;
      }

      .cls-61 {
        font-family: Montserrat-Black, Montserrat;
        font-size: 18.8px;
        font-weight: 800;
      }

      .cls-62 {
        stroke-width: .58px;
      }

      .cls-62, .cls-67 {
        stroke-linecap: round;
        stroke-linejoin: round;
      }

      .cls-12 {
        fill: #e5b7f9;
      }

      .cls-13 {
        fill: #c72781;
      }

      .cls-13, .cls-27 {
        opacity: .3;
      }

      .cls-63 {
        font-family: Montserrat-ExtraBold, Montserrat;
        font-size: 86.09px;
        font-weight: 700;
      }

      .cls-14 {
        fill: url(#_Áåçûìÿííûé_ãðàäèåíò_80-2);
      }

      .cls-68 {
        fill: url(#Degradado_sin_nombre_20);
        stroke: #71008c;
        stroke-width: 2.81px;
      }

      .cls-15 {
        fill: url(#radial-gradient-3);
      }

      .cls-15, .cls-21, .cls-23, .cls-38, .cls-45 {
        mix-blend-mode: screen;
      }

      .cls-16 {
        fill: url(#_Áåçûìÿííûé_ãðàäèåíò_134);
      }

      .cls-17 {
        fill: url(#_Áåçûìÿííûé_ãðàäèåíò_13-2);
      }

      .cls-19 {
        fill: url(#_Áåçûìÿííûé_ãðàäèåíò_57);
      }

      .cls-20 {
        fill: url(#_Áåçûìÿííûé_ãðàäèåíò_80-3);
      }

      .cls-21 {
        fill: url(#radial-gradient-6);
      }

      .cls-22 {
        fill: url(#_Áåçûìÿííûé_ãðàäèåíò_88-2);
      }

      .cls-23 {
        fill: url(#radial-gradient-4);
      }

      .cls-72 {
        letter-spacing: -.03em;
      }

      .cls-24 {
        fill: #3bffc2;
      }

      .cls-73 {
        letter-spacing: 0em;
      }

      .cls-26 {
        fill: url(#linear-gradient-2);
      }

      .cls-27, .cls-33, .cls-41, .cls-52 {
        fill: #ab2781;
      }

      .cls-28 {
        fill: url(#_Áåçûìÿííûé_ãðàäèåíò_20);
      }

      .cls-29 {
        fill: url(#_Áåçûìÿííûé_ãðàäèåíò_106-2);
      }

      .cls-30 {
        fill: url(#_Áåçûìÿííûé_ãðàäèåíò_106);
      }

      .cls-31 {
        fill: #d14894;
      }

      .cls-32 {
        fill: url(#_Áåçûìÿííûé_ãðàäèåíò_57-3);
      }

      .cls-33 {
        opacity: .8;
      }

      .cls-34 {
        fill: #4d0542;
      }

      .cls-35 {
        fill: url(#linear-gradient-3);
      }

      .cls-66 {
        filter: url(#outer-glow-1);
      }

      .cls-36 {
        fill: url(#_Áåçûìÿííûé_ãðàäèåíò_107);
      }

      .cls-74 {
        clip-path: url(#clippath);
      }

      .cls-37 {
        fill: url(#_Áåçûìÿííûé_ãðàäèåíò_80);
      }

      .cls-38 {
        fill: url(#radial-gradient-2);
      }

      .cls-39 {
        fill: url(#radial-gradient);
      }

      .cls-39, .cls-44 {
        opacity: .53;
      }

      .cls-39, .cls-49 {
        mix-blend-mode: overlay;
      }

      .cls-40 {
        fill: url(#_Áåçûìÿííûé_ãðàäèåíò_89);
      }

      .cls-75 {
        filter: url(#outer-glow-5);
      }

      .cls-42 {
        fill: url(#_Áåçûìÿííûé_ãðàäèåíò_81-2);
      }

      .cls-67 {
        fill: url(#Degradado_sin_nombre_27);
        stroke-width: 4.32px;
      }

      .cls-43 {
        fill: #aaefff;
      }

      .cls-44 {
        fill: #a4a2a8;
      }

      .cls-45 {
        fill: url(#radial-gradient-5);
      }

      .cls-47 {
        fill: url(#_Áåçûìÿííûé_ãðàäèåíò_88-3);
      }

      .cls-48 {
        fill: url(#_Áåçûìÿííûé_ãðàäèåíò_107-2);
      }

      .cls-49 {
        fill: url(#linear-gradient-5);
        opacity: .36;
      }

      .cls-50 {
        fill: url(#_Áåçûìÿííûé_ãðàäèåíò_20-2);
      }

      .cls-51 {
        fill: url(#_Áåçûìÿííûé_ãðàäèåíò_30);
      }

      .cls-53 {
        fill: url(#linear-gradient-4);
      }

      .cls-54 {
        fill: #c22781;
      }

      .cls-76 {
        filter: url(#outer-glow-6);
      }

      .cls-77 {
        filter: url(#outer-glow-2);
      }

      .cls-55 {
        fill: url(#_Áåçûìÿííûé_ãðàäèåíò_81);
      }

      .cls-56 {
        fill: url(#_Áåçûìÿííûé_ãðàäèåíò_13-3);
      }

      .cls-57 {
        fill: url(#_Áåçûìÿííûé_ãðàäèåíò_13);
      }

      .cls-58 {
        fill: url(#_Áåçûìÿííûé_ãðàäèåíò_57-6);
      }

      .cls-59 {
        fill: url(#_Áåçûìÿííûé_ãðàäèåíò_57-5);
      }

      .cls-60 {
        fill: url(#_Áåçûìÿííûé_ãðàäèåíò_71);
      }
    </style>
    <radialGradient id="radial-gradient" cx="463.26" cy="744.25" fx="463.26" fy="744.25" r="463.26" gradientTransform="translate(661.95 -109.59) rotate(45)" gradientUnits="userSpaceOnUse">
      <stop offset="0" stop-color="#fff"/>
      <stop offset=".08" stop-color="rgba(246, 248, 250, .97)" stop-opacity=".97"/>
      <stop offset=".22" stop-color="rgba(222, 230, 238, .87)" stop-opacity=".87"/>
      <stop offset=".39" stop-color="rgba(184, 200, 218, .72)" stop-opacity=".72"/>
      <stop offset=".59" stop-color="rgba(130, 159, 191, .51)" stop-opacity=".51"/>
      <stop offset=".81" stop-color="rgba(62, 107, 157, .25)" stop-opacity=".25"/>
      <stop offset=".99" stop-color="#003b7d" stop-opacity="0"/>
    </radialGradient>
    <filter id="outer-glow-1" filterUnits="userSpaceOnUse">
      <feOffset dx="0" dy="0"/>
      <feGaussianBlur result="blur" stdDeviation="2.33"/>
      <feFlood flood-color="#00fbff" flood-opacity="1"/>
      <feComposite in2="blur" operator="in"/>
      <feComposite in="SourceGraphic"/>
    </filter>
    <filter id="outer-glow-2" filterUnits="userSpaceOnUse">
      <feOffset dx="0" dy="0"/>
      <feGaussianBlur result="blur-2" stdDeviation="2.33"/>
      <feFlood flood-color="#00fbff" flood-opacity="1"/>
      <feComposite in2="blur-2" operator="in"/>
      <feComposite in="SourceGraphic"/>
    </filter>
    <filter id="outer-glow-3" filterUnits="userSpaceOnUse">
      <feOffset dx="0" dy="0"/>
      <feGaussianBlur result="blur-3" stdDeviation="2.33"/>
      <feFlood flood-color="#00fbff" flood-opacity="1"/>
      <feComposite in2="blur-3" operator="in"/>
      <feComposite in="SourceGraphic"/>
    </filter>
    <filter id="outer-glow-4" filterUnits="userSpaceOnUse">
      <feOffset dx="0" dy="0"/>
      <feGaussianBlur result="blur-4" stdDeviation="2.33"/>
      <feFlood flood-color="#00fbff" flood-opacity="1"/>
      <feComposite in2="blur-4" operator="in"/>
      <feComposite in="SourceGraphic"/>
    </filter>
    <filter id="outer-glow-5" filterUnits="userSpaceOnUse">
      <feOffset dx="0" dy="0"/>
      <feGaussianBlur result="blur-5" stdDeviation="2.33"/>
      <feFlood flood-color="#00fbff" flood-opacity="1"/>
      <feComposite in2="blur-5" operator="in"/>
      <feComposite in="SourceGraphic"/>
    </filter>
    <filter id="outer-glow-6" filterUnits="userSpaceOnUse">
      <feOffset dx="0" dy="0"/>
      <feGaussianBlur result="blur-6" stdDeviation="2.33"/>
      <feFlood flood-color="#00fbff" flood-opacity="1"/>
      <feComposite in2="blur-6" operator="in"/>
      <feComposite in="SourceGraphic"/>
    </filter>
    <linearGradient id="_Áåçûìÿííûé_ãðàäèåíò_106" data-name="Áåçûìÿííûé ãðàäèåíò 106" x1="1416.59" y1="618.14" x2="1416.59" y2="99.47" gradientTransform="translate(2159.1 103.83) rotate(-173.24) scale(1 -1)" gradientUnits="userSpaceOnUse">
      <stop offset="0" stop-color="#ffb5b5"/>
      <stop offset=".28" stop-color="#ffb6bd"/>
      <stop offset=".72" stop-color="#ffbbd3"/>
      <stop offset="1" stop-color="#ffbfe6"/>
    </linearGradient>
    <linearGradient id="_Áåçûìÿííûé_ãðàäèåíò_80" data-name="Áåçûìÿííûé ãðàäèåíò 80" x1="2120.02" y1="1361.41" x2="2120.02" y2="1250.95" gradientTransform="translate(2581) rotate(-180) scale(1 -1)" gradientUnits="userSpaceOnUse">
      <stop offset="0" stop-color="#e522d9"/>
      <stop offset="1" stop-color="#ff2443"/>
    </linearGradient>
    <linearGradient id="_Áåçûìÿííûé_ãðàäèåíò_80-2" data-name="Áåçûìÿííûé ãðàäèåíò 80" x1="1746.84" y1="1119.4" x2="1746.84" y2="892.58" xlink:href="#_Áåçûìÿííûé_ãðàäèåíò_80"/>
    <linearGradient id="_Áåçûìÿííûé_ãðàäèåíò_30" data-name="Áåçûìÿííûé ãðàäèåíò 30" x1="1903.14" y1="1116.88" x2="1903.14" y2="883.6" gradientTransform="translate(2581) rotate(-180) scale(1 -1)" gradientUnits="userSpaceOnUse">
      <stop offset="0" stop-color="#ffc3c4"/>
      <stop offset=".44" stop-color="#ffc4cc"/>
      <stop offset="1" stop-color="#ffc9de"/>
    </linearGradient>
    <linearGradient id="_Áåçûìÿííûé_ãðàäèåíò_106-2" data-name="Áåçûìÿííûé ãðàäèåíò 106" x1="1942.51" y1="858.88" x2="1942.51" y2="716.11" gradientTransform="translate(2581) rotate(-180) scale(1 -1)" xlink:href="#_Áåçûìÿííûé_ãðàäèåíò_106"/>
    <linearGradient id="_Áåçûìÿííûé_ãðàäèåíò_20" data-name="Áåçûìÿííûé ãðàäèåíò 20" x1="2137.03" y1="1042.06" x2="2137.03" y2="673.76" gradientTransform="translate(2581) rotate(-180) scale(1 -1)" gradientUnits="userSpaceOnUse">
      <stop offset="0" stop-color="#ffd7da"/>
      <stop offset=".45" stop-color="#ffdfde"/>
      <stop offset="1" stop-color="#fff0e8"/>
    </linearGradient>
    <linearGradient id="_Áåçûìÿííûé_ãðàäèåíò_13" data-name="Áåçûìÿííûé ãðàäèåíò 13" x1="2020.11" y1="753.61" x2="2020.11" y2="145.42" gradientTransform="translate(2500.44 70.22) rotate(-177) scale(1 -1)" gradientUnits="userSpaceOnUse">
      <stop offset="0" stop-color="#ffd7da"/>
      <stop offset=".32" stop-color="#ffdfe1"/>
      <stop offset=".83" stop-color="#fff5f6"/>
      <stop offset="1" stop-color="#fff"/>
    </linearGradient>
    <linearGradient id="_Áåçûìÿííûé_ãðàäèåíò_71" data-name="Áåçûìÿííûé ãðàäèåíò 71" x1="1962.54" y1="458.53" x2="1962.54" y2="276.17" gradientTransform="translate(2500.44 70.22) rotate(-177) scale(1 -1)" gradientUnits="userSpaceOnUse">
      <stop offset="0" stop-color="#fff"/>
      <stop offset="1" stop-color="#d91a81"/>
    </linearGradient>
    <radialGradient id="_Áåçûìÿííûé_ãðàäèåíò_134" data-name="Áåçûìÿííûé ãðàäèåíò 134" cx="1970.82" cy="691.18" fx="1970.82" fy="691.18" r="382.78" gradientTransform="translate(2500.44 70.22) rotate(-177) scale(1 -1)" gradientUnits="userSpaceOnUse">
      <stop offset="0" stop-color="#dc16b1"/>
      <stop offset=".4" stop-color="#9517a9"/>
      <stop offset="1" stop-color="#5a1a88"/>
    </radialGradient>
    <radialGradient id="radial-gradient-2" cx="1970.82" cy="691.18" fx="1970.82" fy="691.18" r="382.78" gradientTransform="translate(2500.44 70.22) rotate(-177) scale(1 -1)" gradientUnits="userSpaceOnUse">
      <stop offset="0" stop-color="#000"/>
      <stop offset=".27" stop-color="#010002"/>
      <stop offset=".41" stop-color="#050009"/>
      <stop offset=".52" stop-color="#0b0017"/>
      <stop offset=".61" stop-color="#15002a"/>
      <stop offset=".69" stop-color="#210042"/>
      <stop offset=".77" stop-color="#300060"/>
      <stop offset=".84" stop-color="#420084"/>
      <stop offset=".9" stop-color="#5700ae"/>
      <stop offset=".96" stop-color="#6e00dc"/>
      <stop offset="1" stop-color="#8000ff"/>
    </radialGradient>
    <linearGradient id="_Áåçûìÿííûé_ãðàäèåíò_13-2" data-name="Áåçûìÿííûé ãðàäèåíò 13" x1="1759.4" y1="460.68" x2="1759.4" y2="272.84" gradientTransform="translate(-981.63 -505.15) rotate(15.4) scale(1 1.02) skewX(-2.8)" xlink:href="#_Áåçûìÿííûé_ãðàäèåíò_13"/>
    <linearGradient id="_Áåçûìÿííûé_ãðàäèåíò_107" data-name="Áåçûìÿííûé ãðàäèåíò 107" x1="1759.4" y1="460.68" x2="1759.4" y2="309.02" gradientTransform="translate(-981.63 -505.15) rotate(15.4) scale(1 1.02) skewX(-2.8)" gradientUnits="userSpaceOnUse">
      <stop offset="0" stop-color="#d91a81"/>
      <stop offset="1" stop-color="#fff"/>
    </linearGradient>
    <linearGradient id="_Áåçûìÿííûé_ãðàäèåíò_107-2" data-name="Áåçûìÿííûé ãðàäèåíò 107" x1="1837.51" y1="690.8" x2="2276.03" y2="690.8" gradientTransform="translate(2500.44 70.22) rotate(-177) scale(1 -1)" xlink:href="#_Áåçûìÿííûé_ãðàäèåíò_107"/>
    <linearGradient id="_Áåçûìÿííûé_ãðàäèåíò_13-3" data-name="Áåçûìÿííûé ãðàäèåíò 13" x1="2376.07" y1="785.96" x2="2376.07" y2="537.64" gradientTransform="translate(2581) rotate(-180) scale(1 -1)" xlink:href="#_Áåçûìÿííûé_ãðàäèåíò_13"/>
    <linearGradient id="_Áåçûìÿííûé_ãðàäèåíò_20-2" data-name="Áåçûìÿííûé ãðàäèåíò 20" x1="2124.76" y1="1340.96" x2="2124.76" y2="960.74" xlink:href="#_Áåçûìÿííûé_ãðàäèåíò_20"/>
    <linearGradient id="_Áåçûìÿííûé_ãðàäèåíò_57" data-name="Áåçûìÿííûé ãðàäèåíò 57" x1="2251.44" y1="832.27" x2="2251.44" y2="645.67" gradientTransform="translate(2581) rotate(-180) scale(1 -1)" gradientUnits="userSpaceOnUse">
      <stop offset="0" stop-color="#931a84"/>
      <stop offset="1" stop-color="#ae04b1"/>
    </linearGradient>
    <linearGradient id="_Áåçûìÿííûé_ãðàäèåíò_57-2" data-name="Áåçûìÿííûé ãðàäèåíò 57" x1="2065.51" y1="850.01" x2="2065.51" y2="713.62" xlink:href="#_Áåçûìÿííûé_ãðàäèåíò_57"/>
    <linearGradient id="_Áåçûìÿííûé_ãðàäèåíò_81" data-name="Áåçûìÿííûé ãðàäèåíò 81" x1="2452.89" y1="724.03" x2="2452.89" y2="537.64" gradientTransform="translate(2581) rotate(-180) scale(1 -1)" gradientUnits="userSpaceOnUse">
      <stop offset="0" stop-color="#ff2443"/>
      <stop offset=".99" stop-color="#e522d9"/>
    </linearGradient>
    <linearGradient id="_Áåçûìÿííûé_ãðàäèåíò_81-2" data-name="Áåçûìÿííûé ãðàäèåíò 81" x1="1844.14" y1="858.97" x2="1844.14" y2="738.54" xlink:href="#_Áåçûìÿííûé_ãðàäèåíò_81"/>
    <linearGradient id="_Áåçûìÿííûé_ãðàäèåíò_57-3" data-name="Áåçûìÿííûé ãðàäèåíò 57" x1="2165.87" y1="1062.57" x2="2165.87" y2="925.16" xlink:href="#_Áåçûìÿííûé_ãðàäèåíò_57"/>
    <linearGradient id="_Áåçûìÿííûé_ãðàäèåíò_57-4" data-name="Áåçûìÿííûé ãðàäèåíò 57" x1="2032.99" y1="1059.01" x2="2032.99" y2="850.02" xlink:href="#_Áåçûìÿííûé_ãðàäèåíò_57"/>
    <linearGradient id="_Áåçûìÿííûé_ãðàäèåíò_88" data-name="Áåçûìÿííûé ãðàäèåíò 88" x1="2034.76" y1="1220.3" x2="2233.44" y2="1220.3" gradientTransform="translate(2581) rotate(-180) scale(1 -1)" gradientUnits="userSpaceOnUse">
      <stop offset="0" stop-color="#ff2483"/>
      <stop offset=".99" stop-color="#e522d9"/>
    </linearGradient>
    <linearGradient id="_Áåçûìÿííûé_ãðàäèåíò_88-2" data-name="Áåçûìÿííûé ãðàäèåíò 88" x1="1810.94" y1="1020.17" x2="1845.31" y2="1020.17" xlink:href="#_Áåçûìÿííûé_ãðàäèåíò_88"/>
    <linearGradient id="_Áåçûìÿííûé_ãðàäèåíò_80-3" data-name="Áåçûìÿííûé ãðàäèåíò 80" x1="2154.5" y1="843.26" x2="2154.5" y2="748.66" xlink:href="#_Áåçûìÿííûé_ãðàäèåíò_80"/>
    <linearGradient id="_Áåçûìÿííûé_ãðàäèåíò_88-3" data-name="Áåçûìÿííûé ãðàäèåíò 88" x1="2174.66" y1="1094.52" x2="2214.96" y2="1094.52" xlink:href="#_Áåçûìÿííûé_ãðàäèåíò_88"/>
    <linearGradient id="_Áåçûìÿííûé_ãðàäèåíò_57-5" data-name="Áåçûìÿííûé ãðàäèåíò 57" x1="2346.88" y1="1082.98" x2="2346.88" y2="964.41" gradientTransform="translate(2711.74 -143.79) rotate(174.3) scale(1 -1)" xlink:href="#_Áåçûìÿííûé_ãðàäèåíò_57"/>
    <linearGradient id="_Áåçûìÿííûé_ãðàäèåíò_89" data-name="Áåçûìÿííûé ãðàäèåíò 89" x1="2342.47" y1="1072.46" x2="2342.47" y2="969.22" gradientTransform="translate(2711.74 -143.79) rotate(174.3) scale(1 -1)" gradientUnits="userSpaceOnUse">
      <stop offset="0" stop-color="#e522d9"/>
      <stop offset="1" stop-color="#ff2483"/>
    </linearGradient>
    <linearGradient id="_Áåçûìÿííûé_ãðàäèåíò_57-6" data-name="Áåçûìÿííûé ãðàäèåíò 57" x1="-496.89" y1="294.96" x2="-496.89" y2="201.71" gradientTransform="translate(655.9 359.06) rotate(-117.48) scale(1 -1)" xlink:href="#_Áåçûìÿííûé_ãðàäèåíò_57"/>
    <linearGradient id="_Áåçûìÿííûé_ãðàäèåíò_89-2" data-name="Áåçûìÿííûé ãðàäèåíò 89" x1="-495.95" y1="286.82" x2="-495.95" y2="201.73" gradientTransform="translate(655.9 359.06) rotate(-117.48) scale(1 -1)" xlink:href="#_Áåçûìÿííûé_ãðàäèåíò_89"/>
    <radialGradient id="radial-gradient-3" cx="-586.46" cy="-3298.81" fx="-586.46" fy="-3298.81" r="108.14" gradientTransform="translate(-682.13 -2032.06) rotate(-29.8) scale(.84 -.88) skewX(-7.19)" gradientUnits="userSpaceOnUse">
      <stop offset=".02" stop-color="#f200a5"/>
      <stop offset=".17" stop-color="#bf0082"/>
      <stop offset=".4" stop-color="#7c0054"/>
      <stop offset=".6" stop-color="#460030"/>
      <stop offset=".77" stop-color="#200016"/>
      <stop offset=".91" stop-color="#080005"/>
      <stop offset="1" stop-color="#000"/>
    </radialGradient>
    <radialGradient id="radial-gradient-4" cx="-586.46" cy="-3298.81" fx="-586.46" fy="-3298.81" r="83.79" gradientTransform="translate(-682.13 -2032.06) rotate(-29.8) scale(.84 -.88) skewX(-7.19)" gradientUnits="userSpaceOnUse">
      <stop offset=".02" stop-color="#ce00f2"/>
      <stop offset=".17" stop-color="#a300bf"/>
      <stop offset=".4" stop-color="#69007c"/>
      <stop offset=".6" stop-color="#3c0046"/>
      <stop offset=".77" stop-color="#1b0020"/>
      <stop offset=".91" stop-color="#070008"/>
      <stop offset="1" stop-color="#000"/>
    </radialGradient>
    <radialGradient id="radial-gradient-5" cx="-1156.8" cy="-1995.24" fx="-1156.8" fy="-1995.24" r="122.16" gradientTransform="translate(-987.82 -1322.52) rotate(-56.04) scale(.84 -1.1) skewX(-7.84)" xlink:href="#radial-gradient-3"/>
    <radialGradient id="radial-gradient-6" cx="-1156.8" cy="-1995.24" fx="-1156.8" fy="-1995.24" r="94.65" gradientTransform="translate(-987.82 -1322.52) rotate(-56.04) scale(.84 -1.1) skewX(-7.84)" xlink:href="#radial-gradient-4"/>
    <linearGradient id="linear-gradient" x1="162.86" y1="360.06" x2="130.69" y2="776.62" gradientTransform="translate(-176.86 76.1) rotate(-18.46)" gradientUnits="userSpaceOnUse">
      <stop offset="0" stop-color="#d8dfeb"/>
      <stop offset=".99" stop-color="#6c77a0"/>
    </linearGradient>
    <linearGradient id="linear-gradient-2" x1="865.78" y1="719.18" x2="906.44" y2="719.18" gradientTransform="translate(-428.8 -495.05) rotate(18.46)" gradientUnits="userSpaceOnUse">
      <stop offset="0" stop-color="#a1a7d2"/>
      <stop offset=".99" stop-color="#565b7b"/>
    </linearGradient>
    <linearGradient id="linear-gradient-3" x1="886.12" y1="939.96" x2="886.12" y2="976.62" gradientTransform="translate(-428.8 -495.05) rotate(18.46)" xlink:href="#linear-gradient"/>
    <linearGradient id="linear-gradient-4" x1="875.57" y1="956.17" x2="896.68" y2="956.17" gradientTransform="translate(-428.8 -495.05) rotate(18.46)" xlink:href="#linear-gradient"/>
    <linearGradient id="linear-gradient-5" x1="893.26" y1="837.54" x2="784.25" y2="770.65" gradientTransform="translate(-450.34 -502.24) rotate(18.46) scale(1.02 1)" gradientUnits="userSpaceOnUse">
      <stop offset="0" stop-color="#fff"/>
      <stop offset=".99" stop-color="#1e120d" stop-opacity="0"/>
    </linearGradient>
    <clipPath id="clippath">
      <rect class="cls-18" x="78.85" y="479.35" width="137.99" height="192.84" transform="translate(189.94 -17.19) rotate(18.46)"/>
    </clipPath>
    <linearGradient id="linear-gradient-6" x1="918.68" y1="776.03" x2="868.91" y2="986.17" gradientTransform="translate(-428.8 -495.05) rotate(18.46)" gradientUnits="userSpaceOnUse">
      <stop offset="0" stop-color="#af00ff"/>
      <stop offset=".99" stop-color="#1e120d" stop-opacity="0"/>
    </linearGradient>
    <linearGradient id="Degradado_sin_nombre_20" data-name="Degradado sin nombre 20" x1="113.21" y1="534.67" x2="207.43" y2="534.67" gradientUnits="userSpaceOnUse">
      <stop offset="0" stop-color="#9717ac"/>
      <stop offset="1" stop-color="#ab2781" stop-opacity=".5"/>
    </linearGradient>
    <linearGradient id="Degradado_sin_nombre_27" data-name="Degradado sin nombre 27" x1="161.91" y1="1263.1" x2="892.97" y2="1263.1" gradientUnits="userSpaceOnUse">
      <stop offset="0" stop-color="#c916af"/>
      <stop offset=".1" stop-color="rgba(192, 23, 172, .96)" stop-opacity=".96"/>
      <stop offset=".26" stop-color="rgba(168, 27, 166, .84)" stop-opacity=".84"/>
      <stop offset=".46" stop-color="rgba(130, 35, 157, .65)" stop-opacity=".65"/>
      <stop offset=".7" stop-color="rgba(76, 44, 144, .38)" stop-opacity=".38"/>
      <stop offset=".96" stop-color="rgba(9, 57, 127, .05)" stop-opacity=".05"/>
      <stop offset=".99" stop-color="#003b7d" stop-opacity="0"/>
    </linearGradient>
  </defs>
  <g class="cls-71">
    <g id="Capa_2" data-name="Capa 2">
      <g id="objects">
        <g>
          <circle class="cls-39" cx="463.26" cy="744.25" r="463.26" transform="translate(-390.58 545.56) rotate(-45)"/>
          <circle class="cls-39" cx="463.26" cy="744.25" r="463.26" transform="translate(-390.58 545.56) rotate(-45)"/>
          <circle class="cls-39" cx="463.26" cy="744.25" r="463.26" transform="translate(-390.58 545.56) rotate(-45)"/>
          <circle class="cls-39" cx="463.26" cy="744.25" r="463.26" transform="translate(-390.58 545.56) rotate(-45)"/>
        </g>
        <g>
          <circle class="cls-66" cx="691.62" cy="221.66" r="214.2" transform="translate(45.84 553.97) rotate(-45)"/>
          <g class="cls-77">
            <path class="cls-46" d="M719.31,376.08v2.16c63.67-11.23,114.38-60.48,127.8-123.38h-2.19c-13.36,61.72-63.13,110.04-125.62,121.22Z"/>
            <path class="cls-46" d="M536.48,245.03h-2.15c11.07,74.78,74.39,132.73,151.54,135.49v-2.13c-75.97-2.76-138.34-59.76-149.39-133.36Z"/>
            <path class="cls-46" d="M691.62,62.64c-80.93,0-147.89,60.79-157.72,139.1h2.15c9.82-77.13,75.81-136.97,155.57-136.97,28.43,0,55.1,7.62,78.12,20.9h4.14c-24.01-14.59-52.16-23.03-82.26-23.03Z"/>
            <path class="cls-46" d="M795.48,101.41h-3.24c30.98,25.98,51.81,63.69,55.59,106.24h2.14c-3.71-42.32-24.09-79.92-54.5-106.24Z"/>
          </g>
          <g class="cls-69">
            <path class="cls-62" d="M719.31,376.08v2.16c63.67-11.23,114.38-60.48,127.8-123.38h-2.19c-13.36,61.72-63.13,110.04-125.62,121.22Z"/>
            <path class="cls-62" d="M536.48,245.03h-2.15c11.07,74.78,74.39,132.73,151.54,135.49v-2.13c-75.97-2.76-138.34-59.76-149.39-133.36Z"/>
            <path class="cls-62" d="M691.62,62.64c-80.93,0-147.89,60.79-157.72,139.1h2.15c9.82-77.13,75.81-136.97,155.57-136.97,28.43,0,55.1,7.62,78.12,20.9h4.14c-24.01-14.59-52.16-23.03-82.26-23.03Z"/>
            <path class="cls-62" d="M795.48,101.41h-3.24c30.98,25.98,51.81,63.69,55.59,106.24h2.14c-3.71-42.32-24.09-79.92-54.5-106.24Z"/>
          </g>
        </g>
        <g>
          <circle class="cls-65" cx="347.56" cy="1083.22" r="214.2" transform="translate(-664.16 563.03) rotate(-45)"/>
          <g class="cls-75">
            <path class="cls-46" d="M375.25,1237.65v2.16c63.67-11.23,114.38-60.48,127.8-123.38h-2.19c-13.36,61.72-63.13,110.04-125.62,121.22Z"/>
            <path class="cls-46" d="M192.42,1106.59h-2.15c11.07,74.78,74.39,132.73,151.54,135.49v-2.13c-75.97-2.76-138.34-59.76-149.39-133.36Z"/>
            <path class="cls-46" d="M347.56,924.21c-80.93,0-147.89,60.79-157.72,139.1h2.15c9.82-77.13,75.81-136.97,155.57-136.97,28.43,0,55.1,7.62,78.12,20.9h4.14c-24.01-14.59-52.16-23.03-82.26-23.03Z"/>
            <path class="cls-46" d="M451.42,962.98h-3.24c30.98,25.98,51.81,63.69,55.59,106.24h2.14c-3.71-42.32-24.09-79.92-54.5-106.24Z"/>
          </g>
          <g class="cls-76">
            <path class="cls-62" d="M375.25,1237.65v2.16c63.67-11.23,114.38-60.48,127.8-123.38h-2.19c-13.36,61.72-63.13,110.04-125.62,121.22Z"/>
            <path class="cls-62" d="M192.42,1106.59h-2.15c11.07,74.78,74.39,132.73,151.54,135.49v-2.13c-75.97-2.76-138.34-59.76-149.39-133.36Z"/>
            <path class="cls-62" d="M347.56,924.21c-80.93,0-147.89,60.79-157.72,139.1h2.15c9.82-77.13,75.81-136.97,155.57-136.97,28.43,0,55.1,7.62,78.12,20.9h4.14c-24.01-14.59-52.16-23.03-82.26-23.03Z"/>
            <path class="cls-62" d="M451.42,962.98h-3.24c30.98,25.98,51.81,63.69,55.59,106.24h2.14c-3.71-42.32-24.09-79.92-54.5-106.24Z"/>
          </g>
        </g>
        <g>
          <path class="cls-43" d="M394.83,456.06l370.87-205.11,3.72-179.1s52.73,101.35,9.86,218.49c0,0,21.45,23.71,16.79,98.73-4.66,75.02-45.96,234.67-115.07,280.06-58.48,38.41-150.51,48.13-149.77,52.37.74,4.25,23.9,12.03,72.32,17.64,38.83,4.5,64.72-13.4,94.03-12.18,20.97.87,87.36,6.47,90.99,19.31,3.64,12.84-7.58,29.52-7.58,29.52,0,0,44.16,15.02,39.43,42.77-6.71,39.36-82.39,39.01-152.16,37.8-69.77-1.2-94.03-6.34-94.03-6.34,0,0,14.9,12.72,26.29,37.49,0,0,12.93,3.24,16.32,3.54,3.39.3,51.82-5.85,82.56,3.45,30.74,9.3,26.12,18.61,32.76,19.5,6.64.9,21.35-.22,28.51-3.24,11.53-4.85,42.16-27.16,73.48-25.49,30.01,1.61,47.47,16.39,47.47,16.39,0,0-88.08,162.45-143.74,173.44-55.66,10.98-253.28-124-253.28-124l-89.78-495.04,323.75-172.13-323.75,172.13Z"/>
          <g>
            <path class="cls-30" d="M624.6,542.72c25.56-13.28,84.34-60.93,122.87-165.67,12.73-34.54,23.24-75.33,29.62-123.13,25.73-192.65-41.48-248.53-39.88-202.17,0,0,.04.2.05.65,5.03,153.42-25.89,384.92-56.95,413.61-31.13,28.74-31.28,24.02-31.28,24.02-25.79,15.19-38.88,62.52-24.43,52.69Z"/>
            <path class="cls-27" d="M624.6,542.72c25.56-13.28,84.34-60.93,122.87-165.67-16.82,24.44-26.64,17.48-12.57-106.14,13.31-117.78,3.37-210.13,2.36-218.51,5.03,153.42-25.89,384.92-56.95,413.61-31.13,28.74-31.28,24.02-31.28,24.02-25.79,15.19-38.88,62.52-24.43,52.69Z"/>
            <path class="cls-37" d="M578.56,1337.02s-2.09,16.69-2.61,20.34c-.52,3.65-66.22,10.95-117.32-11.99-51.1-22.94-100.89-49.26-114.72-55.53-2.22-1.01,3.65-38.88,3.65-38.88l231,86.07Z"/>
            <path class="cls-14" d="M853.88,892.58s26.25,6.26,27.64,11.82c1.39,5.56-10.43,48.67-31.29,102.9-20.86,54.23-34.08,103.76-36.51,109.59-2.43,5.82-27.03-.27-27.03-.27l67.19-224.04Z"/>
            <path class="cls-51" d="M558.83,883.6c8.54,9.73,74.48,17.5,119.32,27.93,44.84,10.43,66.22,15.12,73.52,13.56,7.3-1.56,44.15-30.08,102.2-32.5,8.34-.35-25.03,79.95-35.98,125.32-10.95,45.37-20.34,91.25-27.64,97.51-7.3,6.26-79.26-7.82-144.44-33.89-65.18-26.07-145.3-44.32-145.3-44.32l58.31-153.59Z"/>
            <path class="cls-29" d="M464.65,768.34c5.83,33.35,44.53,69.19,92.41,81.3,28.18,7.1,67.15,6.83,104.74,6.66,26.31-.06,51.75,3.02,72.82,2.53,44.94-1.04,71.72-22.68,74.97-28.18,3.25-5.5,8.37-11.56-2.26-30.93-10.62-19.32-50.64-19.15-50.64-19.15,21.3-3.14,24.82-20.14,20.64-26.25-4.18-6.11-30.44-8.26-52.78-10.18-16.46-1.38-27.19-7.54-43.04-4.95-5.17.88-12.22,3.08-21.52,5.23-19.04,4.46-47.39,8.64-87.96.22-43.43-9.03-71.11-19.98-99.07-28.51,0,0-14.09,18.88-8.31,52.23Z"/>
            <path class="cls-28" d="M478.01,716.49c17.63,22.44,29.49,91.12,67.36,139.16,37.87,48.05,5.31,143.99-33.68,175.28-38.99,31.29-148.91-4.52-167.61-93.16-18.71-88.64-32.21-231.52,6.67-257.63,38.89-26.11,127.26,36.35,127.26,36.35Z"/>
            <path class="cls-57" d="M184.84,563c2.81,5.15,6.01,10.13,9.67,14.93l.06.07c.06,0,.06.07.12.07,26.91,35.78,74.63,62.39,118.02,82.37l.19.07c26.73,12.3,51.81,22.08,69.28,29.99,49.86,22.43,80.93,32.84,98.34,24.91,12.75-5.87,81.34-7.92,147.97-36.16.13-.06.26-.05.33-.11l.13-.06c.06,0,.07-.06.13-.06,11.08-4.68,22.08-10.13,32.79-16.43,75.23-44.21,137.18-257.24,120.58-337.88-19.77-96.19-209.21-219.11-366-217.66-156.79,1.52-243.28,97.78-265.51,151.31-.74,1.82-1.48,3.83-2.11,5.98-18.73,60.06.75,233.83,36.02,298.64Z"/>
            <path class="cls-60" d="M764.39,438.28s7.33-78.49-11.08-113.48c-18.41-34.98-99.23-23.02-148.37-28.03-49.14-5.01-145.49-67.57-232.55-59.99-87.06,7.58-97.66,108.25-101.41,131.56-3.75,23.31,493.42,69.93,493.42,69.93Z"/>
            <path class="cls-16" d="M288.1,561.43c3.84,7.45,9.28,14.91,16.08,22.2q.06.07.12.13l.06.07c60.08,64.84,225.86,119.32,344.75,67.84,54.06-23.39,86.05-81.86,102.46-141.59,14.33-51.96,16.79-104.92,11.71-136.35-10.88-67.58-61.56-57.41-98.13-50.87-45.76,8.11-94.82.86-178.02-35.18-83.13-36.1-152.49-31.66-184.84,3.19-38,41.1-56.09,189.23-14.19,270.55Z"/>
            <path class="cls-38" d="M288.1,561.43c3.84,7.45,9.28,14.91,16.08,22.2q.06.07.12.13l.06.07c60.08,64.84,225.86,119.32,344.75,67.84,54.06-23.39,86.05-81.86,102.46-141.59,14.33-51.96,16.79-104.92,11.71-136.35-10.88-67.58-61.56-57.41-98.13-50.87-45.76,8.11-94.82.86-178.02-35.18-83.13-36.1-152.49-31.66-184.84,3.19-38,41.1-56.09,189.23-14.19,270.55Z"/>
            <path class="cls-41" d="M288.1,561.43c3.84,7.45,9.28,14.91,16.08,22.2-2.83-3.42-40.18-50.58,23.18-103.3,65.65-54.71,435.67-42.1,424.21,29.76,14.33-51.96,16.79-104.92,11.71-136.35-10.88-67.58-61.56-57.41-98.13-50.87-45.76,8.11-94.82.86-178.02-35.18-83.13-36.1-152.49-31.66-184.84,3.19-38,41.1-56.09,189.23-14.19,270.55Z"/>
            <path class="cls-17" d="M591.83,417.54c-97.66-24.65-113.33-138.56-67.25-179.61,5.23-4.68,11.29-8.39,18.12-10.93,59.45-22.06,126.73,11.09,147.02,55.39,5.76,12.61,8.74,27.58,8.73,43.02.01,52.79-34.21,110.44-106.62,92.13Z"/>
            <path class="cls-5" d="M608.32,362.72c-52.55-13.21-63.89-81.26-37.32-104.8,2.98-2.65,6.44-4.65,10.33-5.87,32.99-10.28,67.52,12.81,76.69,38.53,2.52,7.09,3.65,15.3,3.35,23.6-.98,27.77-17.83,57.4-53.05,48.53Z"/>
            <path class="cls-24" d="M602.4,356.76c-44.89-11.28-54.22-68.8-31.78-88.85,2.52-2.26,5.45-3.98,8.74-5.06,28.04-9.09,57.75,10.01,65.8,31.86,2.22,6.05,3.24,13.07,3.02,20.2-.71,23.92-15.27,49.53-45.79,41.85Z"/>
            <path class="cls-36" d="M591.83,417.54c-97.66-24.65-113.33-138.56-67.25-179.61-24.82,31.81-15.24,114.99,49.63,152.85,64.82,37.78,117.66-1.48,124.16-64.92-.02-.14.04-.33.08-.45.01,52.79-34.21,110.44-106.62,92.13Z"/>
            <path class="cls-48" d="M194.7,578.07c43.52,57.88,141.52,91.68,187.49,112.43,49.86,22.43,80.93,32.84,98.34,24.91,12.75-5.87,81.34-7.92,147.97-36.16-6.34,2.36-62.88,27.65-208.98-5.86-150.73-34.65-220.55-92.21-224.81-95.32Z"/>
            <path class="cls-41" d="M184.84,563c2.81,5.15,6.01,10.13,9.67,14.93l.06.07c.06,0,.06.07.12.07,26.91,35.78,74.63,62.39,118.02,82.37l.19.07s-57.93-34.45-110.71-128.52c-76.31-136.02-53.37-267.64-53.37-267.64-18.73,60.06.75,233.83,36.02,298.64Z"/>
            <path class="cls-11" d="M267,167.09c40.25,15.8-9.67,209.84-22.97,300.18-13.31,90.34-98.72-24.48-102.43-135.95-3.71-111.47,107.55-171.24,125.41-164.23Z"/>
            <path class="cls-46" d="M722.27,406.96c18.1,4.38-4.96,32.72-18.73,32.74-13.77.02,3.53-36.42,18.73-32.74Z"/>
            <path class="cls-3" d="M689.91,491.53c42.03,13.18,5.29,88.78-54.08,98.73-59.37,9.95,5.89-113.85,54.08-98.73Z"/>
            <path class="cls-46" d="M351.32,195.44c18.8,10.73-3.99,45-32.21,39.41-28.22-5.59-4.02-60.08,32.21-39.41Z"/>
            <path class="cls-46" d="M244.76,501.78c18.88,5.04,13.81,30.02-1.79,34.06-15.6,4.04-10.19-37.26,1.79-34.06Z"/>
            <path class="cls-46" d="M456.49,679.14s-32.28-12.79-86.27-43.57c-53.99-30.78-75.52-37.37-77.33-37.47-1.82-.1-.94,34.92,52.26,54.55,53.2,19.63,111.35,26.49,111.35,26.49Z"/>
            <path class="cls-46" d="M633.97,677.36c17.16-8.36,23.73-21.98,22.32-23.96-1.42-1.98-43.91,14.93-83.29,18.63-39.38,3.71-41.96,6.61-41.75,8.44.21,1.83,57.11,19.1,102.72-3.11Z"/>
            <path class="cls-46" d="M555.55,360.97c19.33,8.45,2.29-40.73-16.74-48.41-19.04-7.68-1.81,40.3,16.74,48.41Z"/>
            <path class="cls-3" d="M356.82,354.05c6.8,2.61-2.4,14.85-10.65,17.66-8.25,2.81-7.62-24.68,10.65-17.66Z"/>
            <path class="cls-3" d="M490.27,302.92s-82.47-39.34-142.36-21.94c-59.89,17.4-65.52,94.5-65.52,94.5,0,0,24.18-78.64,77.05-87.53,52.87-8.89,130.83,14.96,130.83,14.96Z"/>
            <path class="cls-41" d="M398.45,733.72s3.09,59.33-10.74,109.76c-15.47,56.4-50.03,60.49-50.03,60.49,0,0-8.51-49.55-9.29-74.04-.78-24.49,70.06-96.2,70.06-96.2Z"/>
            <path class="cls-56" d="M87.35,661.78c13.92,17.56,44.86,40.67,80.25,62.25,33.08,20.2,70.01,38.97,100.45,50.42,20.37,7.71,37.81,12.11,49.26,11.45,46.84-2.64,55.21-84.65,45.08-101.77-8.15-13.76-113.6-36.6-139.36-56.53-4.57-3.52-8.37-6.71-11.56-9.69-20.59-18.88-16.29-26.47-31.26-38.03-17.34-13.37-42.88-40.89-50.31-42.16-7.43-1.27-14.37,12.83-5.94,33.25,0,0-49.7-28.4-71.44-17.67-1.82.88-3.3,2.09-4.51,3.52-13.71,15.91,6.6,63.79,39.35,104.96Z"/>
            <path class="cls-50" d="M475.83,1019.46c22.21,31.29,32.1,71.96,45.77,128.27,13.67,56.32,41.82,112.11,49.91,139.22s8.61,45.37,7.05,50.06c-1.56,4.69-56.32,9.39-109.5-12.51-53.19-21.9-71.96-41.19-94.9-46.93-22.94-5.74-27.64-20.34-26.59-32.85,1.04-12.52-3.13-56.84-3.13-131.4s-12.18-138.23-11.13-149.59c1.05-11.36,110.21,10.19,142.54,55.73Z"/>
            <path class="cls-19" d="M302.93,784.75s32.5,6.45,44.63-48.43c12.13-54.88-19.16-67.62-26.47-69.87-7.32-2.26-24.42-9.13-24.42-9.13,0,0,17.68-23.37,61.5-3.91,43.82,19.47,57.46,103.08,14.7,156.79-42.76,53.71-110.65-3.06-112.56-38.73l42.63,13.28Z"/>
            <path class="cls-7" d="M478.01,716.49s30.67-14.77,60.91,22.61c30.24,37.37,2.19,110.91,2.19,110.91,0,0-12.14-17.03-30.37-56.76-18.23-39.73-32.73-76.76-32.73-76.76Z"/>
            <path class="cls-55" d="M87.35,661.78c13.92,17.56,44.86,40.67,80.25,62.25,52.01-5.39,45.41-91.15,43.87-106.12-20.59-18.88-16.29-26.47-31.26-38.03-17.34-13.37-42.88-40.89-50.31-42.16-7.43-1.27-14.37,12.83-5.94,33.25,0,0-49.7-28.4-71.44-17.67-21.8,10.73-.83,63.63,34.84,108.49Z"/>
            <path class="cls-42" d="M661.81,856.29c26.31-.06,45.02,3.42,72.82,2.53,51.16-1.63,71.72-22.68,74.97-28.18,3.25-5.5,8.37-11.56-2.26-30.93-10.62-19.32-50.64-19.15-50.64-19.15,21.3-3.14,24.82-20.14,20.64-26.25-4.18-6.11-30.44-8.26-52.78-10.18-16.46-1.38-27.19-7.54-43.04-4.95-5.17.88-12.22,3.08-21.52,5.23,7.43,17.28,28.18,73.65,1.82,111.9Z"/>
            <path class="cls-32" d="M489,1041.82s-19.2-33.63-78.52-57.12c-59.33-23.49-73.31-7.77-73.5,16.97,0,0-21.31-10.21-15.69-47.63,4.46-29.72,46.95-43.91,121.52-5.84,74.57,38.07,77.04,88.13,55.03,114.37l-8.84-20.75Z"/>
            <path class="cls-9" d="M500.54,1059.01c29.72-6.49,52.23-22.9,67.81-43.92,25.7-34.68,32.75-81.9,22.79-118.23-3.08-11.23-6.83-19.92-10.84-26.53,0,0-.06,0-.06-.05-18.04-19.13-39.13-20.26-39.13-20.26l6.71,8.97c27.36,45.9-23.39,149.11-39.13,180.15-2.92,5.67-8.15,19.87-8.15,19.87Z"/>
            <path class="cls-4" d="M347.56,1244.73s98.41-71.75,198.68-22.49l-5.08-13.15s-88.27-46.75-193.6,35.64Z"/>
            <path class="cls-22" d="M747.33,925.35s-10.84,101.23,22.74,190.66c0,0-44.12-68.16-32.38-191.68l9.65,1.02Z"/>
            <path class="cls-20" d="M416.03,839.32c-15.52-11.43-21.13-46.05-18.14-59.72,7.14-32.66,23.76-31.31,30.01-30.75l-.03,3.29.27-3.27-.27,3.27.27-3.27c12.35,1.01,21.76,12.15,25.8,30.54,4.91,22.3.74,51.74-14.56,60.4-4.41,2.5-8.35,3.45-11.81,3.45-4.85,0-8.74-1.87-11.54-3.94ZM404.3,780.99c-2.64,12.09,2.8,43.59,15.62,53.04,4.78,3.51,10.08,3.54,16.22.07,10.94-6.2,16.26-31.1,11.38-53.28-1.6-7.28-6.75-24.32-19.93-25.41l-.24-.02c-.81-.07-1.76-.15-2.8-.15-6.04,0-15.21,2.68-20.25,25.75Z"/>
            <path class="cls-33" d="M123.95,570.96s7.73,8.4,9.3,18.83c1.56,10.43,6.43,45.54,35.28,54.23,0,0-14.43,12.51-30.07-10.17-15.64-22.68-8.45-37.54-10.35-47.19-1.9-9.65-4.16-15.7-4.16-15.7Z"/>
            <path class="cls-47" d="M366.21,973.21s15.33,179.91,40.13,237.03l-12.85,5.57s-29.92-154.97-27.28-242.61Z"/>
            <path class="cls-33" d="M756.7,780.56s-13.51.34-16.83,1.26c-3.32.91-12.97,32.72-39.04,38.72,0,0,18.77,3.39,33.37-16.95,14.6-20.34,22.49-23.03,22.49-23.03Z"/>
            <path class="cls-10" d="M490.19,713.62s28.11,96.84-33.95,82.35c-49.25-11.5-62.76-100.88-62.76-100.88,0,0,61.39,20.64,72.96,21.02,11.57.39,23.75-2.49,23.75-2.49Z"/>
            <path class="cls-41" d="M396.57,710.25s6.36,57.95-30.37,88.51c-36.73,30.55-35.56-10.54-36.64-16.94-1.08-6.4,27.73-14.73,23.21-69.65-4.52-54.92-56.11-54.84-56.11-54.84,0,0,32.82,3.74,41.16,48.24,8.34,44.5-23.92,69.53-41.16,72.65-17.24,3.13-36.37-6.74-36.37-6.74,0,0,14.42,59.54,69.27,60.78,54.84,1.24,75.7-77.68,67.01-122Z"/>
            <path class="cls-41" d="M521.6,722.83c-23.12-10.53-13.19,33.1-1.97,71.72,11.22,38.62,26,41.25,26,41.25l-4.51,14.22s-44.58-74.26-63.1-133.52c0,0,18.57-9.56,43.59,6.33Z"/>
            <path class="cls-59" d="M497.8,1165.05c44-16.02,18.12-93.17-5.32-110.54-23.44-17.37-54.58,5.25-56.17,54.22-1.58,48.97,47.25,61.51,61.49,56.32Z"/>
            <path class="cls-40" d="M510.27,1142.26c12.72-21.25,2.69-77.13-25.08-87.1-27.77-9.98-37.25,26.53-35.71,50.57,2.45,38.42,41.72,68.39,60.79,36.53Z"/>
            <path class="cls-58" d="M716.19,916c20.55,13.28-27.5,35.22-64.05,28.74-35.43-6.29-42.92-34.25-41.88-44.97,1.04-10.72,73.24-4.89,105.93,16.23Z"/>
            <path class="cls-2" d="M719.48,918.61c3.54,10.26-35.78,26.52-64.32,19.42-28.54-7.09-40.55-31.74-37.96-39.05,2.58-7.31,36.73-4.39,59.77-.19,23.04,4.2,40.95,15.27,42.51,19.81Z"/>
            <path class="cls-41" d="M351.06,926.47c-22.46,11.77,14.22,31.12,41.51,44.67,27.29,13.56,83.95,42.41,99.25,53.53,15.3,11.12,3.51-30.99-5.55-45.91,0,0,44.3,40.74,12.93,82.09l-10.86-8.71s-35.11-51.89-87.25-58.27c-52.14-6.39-60.99,36.77-60.99,36.77l-3.12-28.97s-17.63-9.39-16.56-38.82c1.07-29.43,21.13-35.2,30.64-36.38Z"/>
            <path class="cls-41" d="M500.54,1059.01c29.72-6.49,52.23-22.9,67.81-43.92l8.64-14.86s-37.54,25.15-31.37-18.66c6.16-43.7,25.43-117.24,34.62-111.29-12.77-16.84-39.13-20.26-39.13-20.26l6.71,8.97c27.36,45.9-23.39,149.11-39.13,180.15-2.92,5.67-8.15,19.87-8.15,19.87Z"/>
            <path class="cls-13" d="M550.43,863.04s-.9,58.04-22.8,89.33c-21.9,31.29-54.56,14.73-54.56,14.73,0,0,40.25,38.92,35.62,72.04,0,0,71.55-88.05,41.74-176.1Z"/>
            <path class="cls-41" d="M591.1,894.52l7.74,1.6s40.2,75.9,49.06,127c8.86,51.1-52.43,40.43-52.43,40.43l-60.89-17.81s78.39-52.07,56.52-151.21Z"/>
            <path class="cls-54" d="M458.63,1345.36c-9.96-4.52-43.18-79.92-65.53-97.16-22.35-17.24-52.14,11.95-45.54,43.34,0,0,35.81,17.14,49.71,23.75,13.91,6.6,61.36,30.07,61.36,30.07Z"/>
            <path class="cls-54" d="M869.12,954.05s-59.93,26.31-82.43,70.11c-22.5,43.8,6.87,83.95,14.52,87.43,7.65,3.48,14.28,0,14.28,0,0,0,12.14-38.24,23.96-74.04,11.82-35.81,29.67-83.49,29.67-83.49Z"/>
            <path class="cls-3" d="M540.39,1220.3c11.62,4.84,28.57,79,21.81,94.99s-101.89-2.69-138.16-47.5c-36.27-44.8-21.41-47.5-21.41-47.5,0,0,56.67-33.81,137.77,0Z"/>
            <path class="cls-3" d="M843.97,894.52c8.42-1.46-11.99,58.2-40.15,95.22-28.16,37.02-44.32,43.85-44.32,43.85,0,0-19.5-79.83-8.86-96.51,10.63-16.69,31.81-31.92,93.34-42.55Z"/>
            <path class="cls-25" d="M482.52,977.45c12.72,12.08-35.65,24.73-69.14,0-33.49-24.73-26.54-39.85-26.54-39.85,0,0,48.14-5.3,95.68,39.85Z"/>
            <path class="cls-25" d="M576.47,897.71c11.15-3.98,15.62,30.76,3.77,61.01-11.85,30.24-31.82,29.2-34.61,28.16-2.79-1.04,5.29-80.04,30.84-89.17Z"/>
            <path class="cls-25" d="M393.38,738.97c-11.93,21.86-32.79-31.79-47.91-59.72-15.12-27.93,60.63-25.15,47.91,59.72Z"/>
            <path class="cls-46" d="M440.03,866.85c25.6,17.92-19.58,27.12-21.26,8.34-1.68-18.77,14.31-13.21,21.26-8.34Z"/>
            <path class="cls-46" d="M813.72,954.05c10.6,1.78-8.69,16.75-13.9,17.09-5.21.35-8.8-20.9,13.9-17.09Z"/>
            <path class="cls-46" d="M436.27,1248.9c22.32,12.06-5.63,21.9-12.58,3.82-6.95-18.08,7.44-6.61,12.58-3.82Z"/>
            <path class="cls-46" d="M402.62,1048.69c20.32,10.87,14.53,18.22,3.72,24.48-10.81,6.26-10.89-28.31-3.72-24.48Z"/>
            <path class="cls-31" d="M541.16,1209.08s-3.4-20.22-56.7-22.31c-53.3-2.09-105.52,36.73-105.52,36.73,0,0,73.72-38.6,162.22-14.43Z"/>
            <path class="cls-31" d="M737.68,924.33s-12.16-7.78-13.99,40.19c-1.82,47.97,28.46,110.58,28.46,110.58,0,0-14.16-58.5-14.36-99.96-.2-41.45-.11-50.81-.11-50.81Z"/>
            <path class="cls-41" d="M87.35,661.78c13.92,17.56,44.86,40.67,80.25,62.25,33.08,20.2,70.01,38.97,100.45,50.42l12.16,3.25s-83.5-29.17-148.89-92.36c-65.33-63.19-82.51-116.69-83.33-128.52-13.71,15.91,6.6,63.79,39.35,104.96Z"/>
            <path class="cls-27" d="M123.95,570.96s-25.29-17.03-38.16-2.72c-12.86,14.31-.4,64.7,38.16,86.91,19.71,11.35,39.71-9.48,39.71-9.48,0,0-29.02-11.53-29.55-32.58-.53-21.05-10.16-42.12-10.16-42.12Z"/>
            <path class="cls-27" d="M756.7,780.56s30.69-.18,44.51,16.51c13.82,16.69-19.12,43.8-53.75,43.28-34.63-.52-45.12-19.89-41.89-21.26,3.23-1.37,20.73-4.86,26.81-20.33,6.08-15.47,24.32-18.2,24.32-18.2Z"/>
            <path class="cls-52" d="M124.77,539.4c6.37-3.29,19.25,8.85,20.12,27.1.87,18.25-6.95,24.33-8.86,22.77-1.91-1.56-6.87-8.8-11.26-17.35-4.39-8.55-7.78-28.51,0-32.52Z"/>
            <path class="cls-52" d="M778.69,757.91c-7.43-7.23-3.3,9.68-38.03,21.21l-.79,2.69s9.06,0,24.19-4.04c15.12-4.04,14.64-19.86,14.64-19.86Z"/>
            <path class="cls-11" d="M309.25,773.18c13.36-10.77-39.94-55.94-69.67-63.82-29.72-7.89-61.56,14.2-61.56,14.2,0,0,75.32,65.83,131.23,49.63Z"/>
            <path class="cls-41" d="M534.58,1045.73s19.54,6.37,47.75-9.1c28.21-15.47,9.98-75.89,9.98-75.89,0,0-12.07,55.57-57.73,84.99Z"/>
            <path class="cls-52" d="M745.2,746.04s-4.65,5.9-26.64,5.94c-21.99.04-27.77-11.93-26.43-12.59,1.34-.66,11.07-.15,21.54,3.03,10.46,3.18,31.53,3.62,31.53,3.62Z"/>
            <path class="cls-46" d="M300.25,676.53c21.64,15.94-1.01,19.5-17.86,5.8-3.62-2.95,2.1-17.41,17.86-5.8Z"/>
            <path class="cls-41" d="M661.81,856.29s-38.94-.74-70.13-11.25c-31.19-10.51-41.09-31.51-41.09-31.51,0,0-4.86,26.14-7.94,31.65,0,0,26.36,14.88,119.16,11.11Z"/>
            <path class="cls-46" d="M362.42,277.88s1.27,5.97-12.29,12.42c-13.55,6.45-26.67,2.8-26.67,2.8,0,0,6.76-15.72,38.96-15.22Z"/>
          </g>
        </g>
        <g>
          <g>
            <g>
              <path class="cls-15" d="M713.06,509.42c-31.58-42.39-92.53-56.51-136.14-31.53-43.6,24.97-53.35,79.58-21.77,121.97,31.58,42.39,92.53,56.51,136.14,31.53,43.61-24.97,53.35-79.58,21.77-121.97Z"/>
              <path class="cls-23" d="M695.28,519.6c-24.47-32.85-71.7-43.78-105.48-24.43-33.79,19.35-41.34,61.66-16.87,94.51,24.47,32.84,71.7,43.78,105.48,24.43,33.79-19.35,41.34-61.66,16.87-94.51Z"/>
            </g>
            <g>
              <path class="cls-45" d="M478.34,435.88c-66.02-35.04-145.26-25.28-176.97,21.8-31.72,47.09-3.91,113.66,62.11,148.71,66.02,35.04,145.26,25.28,176.97-21.8,31.72-47.09,3.91-113.66-62.11-148.71Z"/>
              <path class="cls-21" d="M465.41,455.08c-51.16-27.15-112.55-19.59-137.12,16.89-24.58,36.48-3.03,88.07,48.13,115.22,51.16,27.15,112.55,19.59,137.12-16.89,24.58-36.48,3.03-88.07-48.13-115.22Z"/>
            </g>
            <path class="cls-1" d="M494.59,556.59c-2.02,7.77-26.24-7.39-62.19-14.46-35.95-7.08-67.71,10.78-78.94,1.75-11.23-9.03,2.75-74.2,53.07-71.82,63.84,3.03,91.42,71.62,88.07,84.53Z"/>
            <path class="cls-1" d="M675.18,603.36c-3.61,5.95-1.47-10.25-24.26-18.83-26.61-10.02-54.27,6.1-59.01-2.91-4.74-9.02,17.68-69.75,50.11-60.04,41.15,12.33,39.16,71.9,33.16,81.79Z"/>
          </g>
          <path class="cls-34" d="M567.01,616.24s-9.05,33.89-34.51,31.44c-25.46-2.45-29.67-45.86-29.67-45.86,0,0,35.33,25.34,64.18,14.42Z"/>
        </g>
        <rect class="cls-6" x="72.04" y="436.53" width="147.32" height="291.3" rx="5.51" ry="5.51" transform="translate(191.86 -16.18) rotate(18.46)"/>
        <rect class="cls-12" x="78.85" y="479.35" width="137.99" height="192.84" transform="translate(189.94 -17.19) rotate(18.46)"/>
        <path class="cls-26" d="M201.09,475.22l-35.41-11.82c-.87-.29-1.34-1.24-1.05-2.11h0c.29-.87,1.24-1.34,2.11-1.05l35.41,11.82c.87.29,1.34,1.24,1.05,2.11h0c-.29.87-1.24,1.34-2.11,1.05Z"/>
        <path class="cls-35" d="M97.09,688.58c2.17-6.51,9.21-10.02,15.71-7.85,6.51,2.17,10.02,9.21,7.85,15.71-2.17,6.51-9.21,10.02-15.71,7.85-6.51-2.17-10.02-9.21-7.85-15.71Z"/>
        <path class="cls-53" d="M98.85,689.17c1.85-5.53,7.83-8.52,13.36-6.67,5.53,1.85,8.52,7.83,6.67,13.36-1.85,5.53-7.83,8.52-13.36,6.67-5.53-1.85-8.52-7.83-6.67-13.36Z"/>
        <path class="cls-49" d="M253.27,465.54q-11.7-3.91-16.59-5.54l-85.88-28.67c-15.66-5.23-32.65,3.03-37.76,18.35l-73.65,220.61c-1.54,4.62-4.73,8.4-3.96,12.93,136.9-24.55,206.35-184.88,217.84-217.67Z"/>
        <path class="cls-44" d="M68.03,594.96s13.58-1.4,15.18-19.19c1.6-17.8-6.96-20.48-6.96-20.48l-8.22,39.67Z"/>
        <g class="cls-74">
          <path class="cls-8" d="M209.49,619.97l12.19-36.53c-8.35-6.4-19.58-8.96-30.08-7.4-12.67,1.88-24.14,9.21-32.54,18.88-4.39,5.05-8.05,10.76-12.95,15.31-8.97,8.32-21.48,12.05-33.71,12.45-5.58.18-11.29-.29-16.44-2.45-9.08-3.81-16.47-12.73-26.31-12.49-3.46.08-6.68,1.38-9.45,3.42l-11.34,33.96c.03.58.11,1.16.27,1.7l135.87,45.36c7.22-24.37,15.4-48.46,24.48-72.21Z"/>
        </g>
        <path class="cls-68" d="M200.26,521.19l-62.68-22c-5.57-1.96-11.73,1-13.69,6.57l-10.08,28.7c-1.96,5.57,1,11.73,6.57,13.69l5.71,2.01,4.16,14.25c.41,1.39,2.18,1.8,3.15.72l8.45-9.43,41.2,14.46c5.57,1.96,11.73-1,13.69-6.57l10.08-28.7c1.96-5.57-1-11.73-6.57-13.69Z"/>
        <text class="cls-61" transform="translate(125.29 529.2) rotate(19.34)"><tspan x="0" y="0">¡HO</tspan><tspan class="cls-70" x="36.96" y="0">L</tspan><tspan class="cls-64" x="48.75" y="0">A!</tspan></text>
        <path class="cls-67" d="M852.96,1159.18H201.92c-22,0-40,18-40,40v69.29c0,22,18,40,40,40h563.11l1.85,58.56,41.77-58.56h44.32c22,0,40-18,40-40v-69.29c0-22-18-40-40-40Z"/>
        <text class="cls-63" transform="translate(212.58 1263.1)"><tspan class="cls-72" x="0" y="0">T</tspan><tspan x="51.65" y="0">ALEN</tspan><tspan class="cls-73" x="299.07" y="0">T</tspan><tspan x="352.88" y="0">OB</tspan><tspan class="cls-73" x="491.91" y="0">O</tspan><tspan x="563.88" y="0">T</tspan></text>
      </g>
    </g>
  </g>
</svg>